<?xml version="1.0" standalone="no"?>
<!DOCTYPE svg PUBLIC "-//W3C//DTD SVG 20010904//EN"
 "http://www.w3.org/TR/2001/REC-SVG-20010904/DTD/svg10.dtd">
<svg version="1.0" xmlns="http://www.w3.org/2000/svg"
 width="849.000000pt" height="308.000000pt" viewBox="0 0 849.000000 308.000000"
 preserveAspectRatio="xMidYMid meet">

<g transform="translate(0.000000,308.000000) scale(0.100000,-0.100000)"
fill="#000000" stroke="none">
<path d="M3904 2859 c-19 -39 -33 -73 -30 -76 4 -5 51 83 69 130 16 41 -6 11
-39 -54z"/>
<path d="M4624 2859 c-19 -39 -33 -73 -30 -76 5 -5 48 76 66 123 18 47 0 23
-36 -47z"/>
<path d="M5017 2907 c4 -21 2 -23 -26 -19 -25 3 -32 0 -42 -21 -19 -43 2 -66
59 -65 26 0 41 3 35 5 -9 3 -13 25 -13 64 0 32 -4 59 -9 59 -4 0 -6 -11 -4
-23z m-13 -33 c24 -9 20 -51 -4 -59 -37 -12 -64 27 -38 53 14 14 20 14 42 6z"/>
<path d="M5104 2859 c-19 -39 -33 -73 -30 -76 2 -3 19 26 37 63 17 38 33 72
36 77 2 4 2 7 -1 7 -3 0 -22 -32 -42 -71z"/>
<path d="M5555 2865 c0 -48 4 -65 14 -65 8 0 11 7 8 20 -3 11 -2 20 3 20 12 0
31 -26 23 -33 -3 -4 4 -7 16 -7 21 0 21 1 -5 23 l-27 23 28 22 c26 21 27 22 6
22 -12 0 -20 -4 -16 -9 3 -5 0 -13 -6 -17 -15 -9 -28 13 -24 42 1 13 -3 24 -9
24 -7 0 -11 -24 -11 -65z"/>
<path d="M6064 2859 c-19 -39 -33 -73 -30 -76 5 -5 48 76 66 123 18 47 0 23
-36 -47z"/>
<path d="M6668 2871 c3 -55 2 -60 -20 -64 -12 -2 -3 -4 22 -4 25 -1 37 1 28 4
-15 4 -18 16 -18 64 0 32 -3 59 -7 59 -5 0 -6 -27 -5 -59z"/>
<path d="M2545 2860 c0 -53 2 -60 20 -60 11 0 15 4 10 8 -16 11 -12 36 7 40 9
2 24 -8 34 -22 9 -14 21 -26 28 -26 7 0 7 3 1 8 -29 21 -36 40 -24 60 18 28
-3 52 -45 52 l-31 0 0 -60z m73 27 c4 -19 -20 -32 -42 -24 -9 4 -12 14 -9 27
7 26 46 24 51 -3z"/>
<path d="M2665 2860 l0 -60 48 0 c38 0 47 3 46 18 0 10 -3 12 -6 5 -7 -19 -60
-16 -67 4 -9 23 12 43 24 23 7 -11 10 -8 9 15 0 17 -3 24 -6 18 -8 -20 -29
-15 -29 7 0 15 7 20 27 20 15 0 30 -6 32 -12 3 -8 6 -6 6 5 1 14 -7 17 -41 17
l-43 0 0 -60z"/>
<path d="M2800 2905 c-16 -19 1 -42 33 -47 27 -4 35 -36 11 -45 -9 -3 -25 -1
-35 6 -15 9 -19 8 -19 -2 0 -15 21 -19 58 -11 15 3 22 11 22 29 0 19 -7 26
-32 33 -17 4 -33 13 -36 20 -6 18 28 27 49 13 15 -9 19 -8 19 2 0 18 -55 20
-70 2z"/>
<path d="M2901 2898 c1 -17 2 -19 6 -5 2 9 11 17 19 17 18 0 20 -96 2 -103 -7
-3 3 -5 22 -5 19 0 27 2 18 5 -14 3 -18 15 -18 54 0 50 13 63 34 33 10 -13 12
-13 12 5 0 18 -6 21 -48 21 -43 0 -48 -2 -47 -22z"/>
<path d="M3039 2912 c11 -8 11 -16 1 -48 -7 -22 -17 -45 -23 -51 -7 -10 -3
-13 14 -12 13 0 19 3 12 5 -22 10 -1 34 29 34 25 0 29 -3 25 -20 -4 -15 0 -20
14 -20 16 0 17 3 9 18 -6 9 -16 35 -24 57 -11 33 -18 40 -42 43 -20 2 -25 0
-15 -6z m41 -21 c0 -5 3 -16 6 -25 4 -12 0 -16 -15 -16 -22 0 -25 8 -15 34 7
17 24 22 24 7z"/>
<path d="M3145 2860 c0 -58 1 -60 25 -59 16 1 19 3 8 6 -22 6 -19 43 4 43 10
0 25 -11 34 -25 9 -14 21 -25 28 -25 7 0 7 3 1 8 -29 21 -36 40 -24 60 18 28
-3 52 -45 52 l-31 0 0 -60z m70 25 c0 -22 -31 -33 -47 -17 -17 17 -1 44 24 40
15 -2 23 -10 23 -23z"/>
<path d="M3261 2898 c1 -17 3 -18 6 -5 2 9 11 17 19 17 18 0 20 -96 2 -103 -7
-3 3 -5 22 -5 19 0 27 2 18 5 -14 3 -18 15 -18 54 0 52 13 63 36 32 12 -17 13
-17 10 2 -2 16 -12 21 -49 23 -44 3 -47 1 -46 -20z"/>
<path d="M3637 2902 c-10 -10 -17 -30 -17 -44 0 -47 62 -77 90 -44 10 13 7 13
-18 4 -24 -9 -34 -9 -46 1 -31 26 -13 84 29 94 19 4 19 5 -1 6 -11 0 -28 -7
-37 -17z"/>
<path d="M3705 2911 c-3 -5 -1 -12 5 -16 5 -3 10 1 10 9 0 18 -6 21 -15 7z"/>
<path d="M3990 2869 c3 -34 11 -56 23 -63 29 -18 52 4 55 55 2 24 9 47 15 51
7 4 -1 8 -18 8 -20 0 -26 -3 -17 -9 9 -5 12 -24 10 -52 -3 -39 -6 -44 -28 -44
-22 0 -25 5 -28 44 -2 28 1 47 10 52 9 6 7 9 -7 9 -19 0 -20 -5 -15 -51z"/>
<path d="M5188 2913 c7 -3 12 -24 12 -53 0 -29 -5 -50 -12 -53 -7 -3 5 -5 27
-5 22 0 30 3 18 5 -20 4 -23 11 -23 53 0 42 3 49 23 53 12 2 4 5 -18 5 -22 0
-34 -2 -27 -5z"/>
<path d="M5680 2905 c0 -8 -6 -15 -12 -15 -10 0 -10 -2 -1 -8 6 -4 13 -20 15
-36 4 -38 28 -53 60 -39 21 10 21 11 -11 9 -31 -1 -34 1 -37 31 -2 28 1 32 24
36 l27 4 -29 2 c-21 1 -27 5 -22 16 3 8 1 15 -4 15 -6 0 -10 -7 -10 -15z"/>
<path d="M6161 2908 c0 -10 -7 -18 -13 -18 -10 0 -10 -2 -1 -8 6 -4 13 -20 15
-36 4 -38 28 -53 60 -39 21 10 21 11 -12 9 -35 -1 -36 -1 -31 48 0 8 13 17 29
19 26 4 25 4 -5 6 -21 0 -33 7 -36 19 -4 16 -5 16 -6 0z"/>
<path d="M6520 2905 c0 -8 -6 -15 -12 -15 -10 0 -10 -2 -1 -8 6 -4 13 -20 15
-36 4 -38 28 -53 60 -39 21 10 21 11 -11 9 -31 -1 -34 1 -35 32 -1 28 2 32 24
33 l25 1 -25 7 c-14 4 -24 13 -22 19 1 7 -2 12 -8 12 -5 0 -10 -7 -10 -15z"/>
<path d="M5265 2860 c0 -26 3 -46 8 -43 9 5 9 64 -1 80 -4 6 -7 -10 -7 -37z"/>
<path d="M3417 2884 c-8 -8 1 -24 14 -24 5 0 9 7 9 15 0 15 -12 20 -23 9z"/>
<path d="M3775 2881 c-7 -12 12 -24 25 -16 11 7 4 25 -10 25 -5 0 -11 -4 -15
-9z"/>
<path d="M4123 2883 c-22 -8 -14 -22 19 -31 17 -4 33 -13 36 -20 6 -18 -28
-27 -49 -13 -15 9 -19 8 -19 -2 0 -15 49 -21 70 -7 20 13 2 44 -29 48 -11 2
-21 8 -21 13 0 13 34 11 48 -3 9 -9 12 -9 12 3 0 15 -42 23 -67 12z"/>
<path d="M4231 2871 c-15 -27 -14 -37 5 -55 16 -17 59 -22 68 -8 3 5 -7 7 -23
4 -17 -2 -32 2 -40 12 -12 14 -8 16 34 16 47 0 47 0 33 23 -20 30 -63 35 -77
8z m67 -8 c2 -9 -8 -13 -33 -13 -33 0 -36 2 -25 15 15 18 51 16 58 -2z"/>
<path d="M4358 2883 c6 -2 12 -20 12 -38 0 -18 -6 -36 -12 -38 -7 -3 5 -5 27
-5 22 0 30 3 18 5 -16 3 -23 11 -23 27 0 29 24 50 47 42 15 -6 16 -5 5 6 -10
10 -16 10 -32 0 -12 -7 -20 -8 -20 -2 0 5 -8 10 -17 9 -11 0 -13 -3 -5 -6z"/>
<path d="M4483 2883 c-22 -8 -14 -22 19 -31 17 -4 33 -13 36 -20 6 -18 -28
-27 -49 -13 -15 9 -19 8 -19 -2 0 -15 49 -21 70 -7 20 13 2 44 -29 48 -11 2
-21 8 -21 13 0 13 34 11 48 -3 9 -9 12 -9 12 3 0 15 -42 23 -67 12z"/>
<path d="M4724 2845 c12 -25 24 -45 28 -45 4 0 15 17 23 37 9 21 21 41 28 45
7 5 0 8 -18 8 -17 0 -25 -4 -18 -8 8 -5 8 -14 -1 -37 l-13 -30 -12 23 c-7 13
-10 30 -7 38 3 9 -1 14 -13 14 -17 0 -16 -3 3 -45z"/>
<path d="M4843 2883 c-22 -8 -14 -22 19 -31 17 -4 33 -13 36 -20 6 -18 -28
-27 -49 -13 -15 9 -19 8 -19 -2 0 -15 49 -21 70 -7 20 13 2 44 -29 48 -11 2
-21 8 -21 13 0 13 34 11 48 -3 9 -9 12 -9 12 3 0 15 -42 23 -67 12z"/>
<path d="M5310 2871 c-14 -27 -13 -37 6 -55 16 -17 59 -22 68 -8 3 5 -7 7 -23
4 -17 -2 -32 2 -40 12 -12 14 -9 16 28 16 27 0 41 4 41 13 0 37 -62 51 -80 18z
m68 -8 c2 -9 -8 -13 -33 -13 -33 0 -36 2 -25 15 15 18 51 16 58 -2z"/>
<path d="M5443 2883 c-22 -8 -14 -22 19 -31 17 -4 33 -13 36 -20 6 -18 -28
-27 -49 -13 -15 9 -19 8 -19 -2 0 -15 49 -21 70 -7 20 13 2 44 -29 48 -11 2
-21 8 -21 13 0 13 34 11 48 -3 9 -9 12 -9 12 3 0 15 -42 23 -67 12z"/>
<path d="M5796 2874 c-9 -8 -16 -22 -16 -29 0 -19 28 -45 49 -45 19 0 51 30
51 47 0 15 -34 43 -53 43 -8 0 -23 -7 -31 -16z m65 -10 c9 -11 10 -20 2 -32
-15 -24 -44 -27 -59 -7 -28 38 27 75 57 39z"/>
<path d="M5898 2883 c7 -3 12 -24 12 -58 0 -33 -5 -55 -12 -58 -7 -3 1 -5 17
-5 17 0 24 2 18 5 -7 2 -13 13 -13 24 0 16 5 18 25 13 31 -8 55 10 55 41 0 32
-19 44 -70 43 -25 0 -39 -3 -32 -5z m87 -38 c0 -25 -4 -30 -24 -30 -32 0 -49
28 -31 50 7 9 23 15 34 13 16 -2 21 -10 21 -33z"/>
<path d="M6270 2871 c-14 -27 -13 -37 6 -55 16 -17 59 -22 68 -8 3 5 -7 7 -23
4 -17 -2 -32 2 -40 12 -12 14 -9 16 28 16 27 0 41 4 41 13 0 37 -62 51 -80 18z
m68 -8 c2 -9 -8 -13 -33 -13 -33 0 -36 2 -25 15 15 18 51 16 58 -2z"/>
<path d="M6403 2883 c-22 -8 -14 -22 19 -31 17 -4 33 -13 36 -20 6 -18 -28
-27 -49 -13 -15 9 -19 8 -19 -2 0 -15 49 -21 70 -7 20 13 2 44 -29 48 -11 2
-21 8 -21 13 0 13 34 11 48 -3 9 -9 12 -9 12 3 0 15 -42 23 -67 12z"/>
<path d="M6858 2883 c7 -3 12 -24 12 -58 0 -33 -5 -55 -12 -58 -7 -3 3 -5 22
-5 19 0 27 2 18 5 -10 2 -18 13 -18 24 0 16 5 18 25 13 31 -8 55 10 55 41 0
32 -19 44 -70 43 -25 0 -39 -3 -32 -5z m87 -38 c0 -33 -25 -45 -50 -25 -18 15
-19 46 -2 54 31 13 52 1 52 -29z"/>
<path d="M7006 2846 c27 -48 24 -73 -9 -79 -15 -3 -11 -5 11 -6 19 0 31 3 27
9 -3 5 1 23 10 40 31 60 36 80 19 80 -8 0 -13 -4 -9 -9 3 -5 0 -21 -6 -35
l-12 -26 -17 27 c-12 20 -14 30 -6 35 6 5 2 8 -11 8 l-22 0 25 -44z"/>
<path d="M43 2873 c15 -2 39 -2 55 0 15 2 2 4 -28 4 -30 0 -43 -2 -27 -4z"/>
<path d="M163 2873 c15 -2 39 -2 55 0 15 2 2 4 -28 4 -30 0 -43 -2 -27 -4z"/>
<path d="M283 2873 c15 -2 39 -2 55 0 15 2 2 4 -28 4 -30 0 -43 -2 -27 -4z"/>
<path d="M403 2873 c15 -2 39 -2 55 0 15 2 2 4 -28 4 -30 0 -43 -2 -27 -4z"/>
<path d="M523 2873 c15 -2 39 -2 55 0 15 2 2 4 -28 4 -30 0 -43 -2 -27 -4z"/>
<path d="M643 2873 c15 -2 39 -2 55 0 15 2 2 4 -28 4 -30 0 -43 -2 -27 -4z"/>
<path d="M763 2873 c15 -2 39 -2 55 0 15 2 2 4 -28 4 -30 0 -43 -2 -27 -4z"/>
<path d="M883 2873 c15 -2 39 -2 55 0 15 2 2 4 -28 4 -30 0 -43 -2 -27 -4z"/>
<path d="M1003 2873 c15 -2 39 -2 55 0 15 2 2 4 -28 4 -30 0 -43 -2 -27 -4z"/>
<path d="M1123 2873 c15 -2 39 -2 55 0 15 2 2 4 -28 4 -30 0 -43 -2 -27 -4z"/>
<path d="M1243 2873 c15 -2 39 -2 55 0 15 2 2 4 -28 4 -30 0 -43 -2 -27 -4z"/>
<path d="M1363 2873 c15 -2 39 -2 55 0 15 2 2 4 -28 4 -30 0 -43 -2 -27 -4z"/>
<path d="M1483 2873 c15 -2 39 -2 55 0 15 2 2 4 -28 4 -30 0 -43 -2 -27 -4z"/>
<path d="M1603 2873 c15 -2 39 -2 55 0 15 2 2 4 -28 4 -30 0 -43 -2 -27 -4z"/>
<path d="M1723 2873 c15 -2 39 -2 55 0 15 2 2 4 -28 4 -30 0 -43 -2 -27 -4z"/>
<path d="M1843 2873 c15 -2 39 -2 55 0 15 2 2 4 -28 4 -30 0 -43 -2 -27 -4z"/>
<path d="M1963 2873 c15 -2 39 -2 55 0 15 2 2 4 -28 4 -30 0 -43 -2 -27 -4z"/>
<path d="M2083 2873 c15 -2 39 -2 55 0 15 2 2 4 -28 4 -30 0 -43 -2 -27 -4z"/>
<path d="M2203 2873 c15 -2 39 -2 55 0 15 2 2 4 -28 4 -30 0 -43 -2 -27 -4z"/>
<path d="M2323 2873 c15 -2 39 -2 55 0 15 2 2 4 -28 4 -30 0 -43 -2 -27 -4z"/>
<path d="M7243 2873 c15 -2 39 -2 55 0 15 2 2 4 -28 4 -30 0 -43 -2 -27 -4z"/>
<path d="M7363 2873 c15 -2 39 -2 55 0 15 2 2 4 -28 4 -30 0 -43 -2 -27 -4z"/>
<path d="M7483 2873 c15 -2 39 -2 55 0 15 2 2 4 -28 4 -30 0 -43 -2 -27 -4z"/>
<path d="M7603 2873 c15 -2 39 -2 55 0 15 2 2 4 -28 4 -30 0 -43 -2 -27 -4z"/>
<path d="M7723 2873 c15 -2 39 -2 55 0 15 2 2 4 -28 4 -30 0 -43 -2 -27 -4z"/>
<path d="M7843 2873 c15 -2 39 -2 55 0 15 2 2 4 -28 4 -30 0 -43 -2 -27 -4z"/>
<path d="M7963 2873 c15 -2 39 -2 55 0 15 2 2 4 -28 4 -30 0 -43 -2 -27 -4z"/>
<path d="M8073 2873 c9 -2 25 -2 35 0 9 3 1 5 -18 5 -19 0 -27 -2 -17 -5z"/>
<path d="M43 2843 c15 -2 39 -2 55 0 15 2 2 4 -28 4 -30 0 -43 -2 -27 -4z"/>
<path d="M163 2843 c15 -2 39 -2 55 0 15 2 2 4 -28 4 -30 0 -43 -2 -27 -4z"/>
<path d="M283 2843 c15 -2 39 -2 55 0 15 2 2 4 -28 4 -30 0 -43 -2 -27 -4z"/>
<path d="M403 2843 c15 -2 39 -2 55 0 15 2 2 4 -28 4 -30 0 -43 -2 -27 -4z"/>
<path d="M523 2843 c15 -2 39 -2 55 0 15 2 2 4 -28 4 -30 0 -43 -2 -27 -4z"/>
<path d="M643 2843 c15 -2 39 -2 55 0 15 2 2 4 -28 4 -30 0 -43 -2 -27 -4z"/>
<path d="M763 2843 c15 -2 39 -2 55 0 15 2 2 4 -28 4 -30 0 -43 -2 -27 -4z"/>
<path d="M883 2843 c15 -2 39 -2 55 0 15 2 2 4 -28 4 -30 0 -43 -2 -27 -4z"/>
<path d="M1003 2843 c15 -2 39 -2 55 0 15 2 2 4 -28 4 -30 0 -43 -2 -27 -4z"/>
<path d="M1123 2843 c15 -2 39 -2 55 0 15 2 2 4 -28 4 -30 0 -43 -2 -27 -4z"/>
<path d="M1243 2843 c15 -2 39 -2 55 0 15 2 2 4 -28 4 -30 0 -43 -2 -27 -4z"/>
<path d="M1363 2843 c15 -2 39 -2 55 0 15 2 2 4 -28 4 -30 0 -43 -2 -27 -4z"/>
<path d="M1483 2843 c15 -2 39 -2 55 0 15 2 2 4 -28 4 -30 0 -43 -2 -27 -4z"/>
<path d="M1603 2843 c15 -2 39 -2 55 0 15 2 2 4 -28 4 -30 0 -43 -2 -27 -4z"/>
<path d="M1723 2843 c15 -2 39 -2 55 0 15 2 2 4 -28 4 -30 0 -43 -2 -27 -4z"/>
<path d="M1843 2843 c15 -2 39 -2 55 0 15 2 2 4 -28 4 -30 0 -43 -2 -27 -4z"/>
<path d="M1963 2843 c15 -2 39 -2 55 0 15 2 2 4 -28 4 -30 0 -43 -2 -27 -4z"/>
<path d="M2083 2843 c15 -2 39 -2 55 0 15 2 2 4 -28 4 -30 0 -43 -2 -27 -4z"/>
<path d="M2203 2843 c15 -2 39 -2 55 0 15 2 2 4 -28 4 -30 0 -43 -2 -27 -4z"/>
<path d="M2323 2843 c15 -2 39 -2 55 0 15 2 2 4 -28 4 -30 0 -43 -2 -27 -4z"/>
<path d="M7243 2843 c15 -2 39 -2 55 0 15 2 2 4 -28 4 -30 0 -43 -2 -27 -4z"/>
<path d="M7363 2843 c15 -2 39 -2 55 0 15 2 2 4 -28 4 -30 0 -43 -2 -27 -4z"/>
<path d="M7483 2843 c15 -2 39 -2 55 0 15 2 2 4 -28 4 -30 0 -43 -2 -27 -4z"/>
<path d="M7603 2843 c15 -2 39 -2 55 0 15 2 2 4 -28 4 -30 0 -43 -2 -27 -4z"/>
<path d="M7723 2843 c15 -2 39 -2 55 0 15 2 2 4 -28 4 -30 0 -43 -2 -27 -4z"/>
<path d="M7843 2843 c15 -2 39 -2 55 0 15 2 2 4 -28 4 -30 0 -43 -2 -27 -4z"/>
<path d="M7963 2843 c15 -2 39 -2 55 0 15 2 2 4 -28 4 -30 0 -43 -2 -27 -4z"/>
<path d="M8073 2843 c9 -2 25 -2 35 0 9 3 1 5 -18 5 -19 0 -27 -2 -17 -5z"/>
<path d="M3417 2824 c-8 -8 1 -24 14 -24 5 0 9 7 9 15 0 15 -12 20 -23 9z"/>
<path d="M3777 2824 c-8 -8 1 -24 14 -24 5 0 9 7 9 15 0 15 -12 20 -23 9z"/>
<path d="M6775 2821 c-7 -12 12 -24 25 -16 11 7 4 25 -10 25 -5 0 -11 -4 -15
-9z"/>
<path d="M3904 2419 c-19 -39 -33 -73 -30 -76 5 -5 33 47 59 110 26 61 10 42
-29 -34z"/>
<path d="M4624 2419 c-19 -39 -33 -73 -30 -76 5 -6 15 13 50 90 35 80 23 71
-20 -14z"/>
<path d="M5017 2467 c4 -21 2 -23 -25 -19 -23 3 -33 -1 -42 -18 -6 -11 -9 -26
-6 -33 2 -7 5 -5 5 4 2 45 71 49 71 4 0 -26 -26 -40 -55 -29 -12 5 -16 4 -11
-4 4 -6 28 -11 54 -10 26 0 41 3 35 5 -9 3 -13 25 -13 64 0 32 -4 59 -9 59 -4
0 -6 -11 -4 -23z"/>
<path d="M5104 2419 c-19 -39 -33 -73 -31 -76 3 -2 19 27 37 64 18 37 35 71
37 76 2 4 2 7 -1 7 -3 0 -22 -32 -42 -71z"/>
<path d="M5555 2425 c0 -47 4 -65 13 -65 9 0 11 7 7 20 -3 11 -2 20 3 20 14 0
33 -26 25 -33 -3 -4 4 -7 16 -7 21 0 21 1 -5 23 l-27 23 28 22 c26 20 26 22 6
22 -11 0 -20 -5 -18 -12 1 -6 -5 -13 -14 -15 -13 -3 -15 4 -14 32 2 21 -2 35
-9 35 -7 0 -11 -23 -11 -65z"/>
<path d="M6064 2419 c-19 -39 -33 -73 -30 -76 4 -5 51 83 69 130 16 41 -6 11
-39 -54z"/>
<path d="M6668 2431 c3 -55 2 -60 -20 -64 -12 -2 -3 -4 22 -4 25 -1 37 1 28 4
-15 4 -18 16 -18 64 0 32 -3 59 -7 59 -5 0 -6 -27 -5 -59z"/>
<path d="M2545 2420 c0 -57 1 -60 25 -60 21 1 23 2 8 11 -19 11 -13 39 8 39 7
0 21 -11 30 -25 9 -14 21 -25 28 -25 7 0 7 3 1 8 -29 21 -36 40 -24 60 18 28
-3 52 -45 52 l-31 0 0 -60z m70 25 c0 -13 -8 -21 -22 -23 -13 -2 -23 1 -23 6
0 6 -3 18 -6 27 -6 13 -1 16 22 13 21 -2 29 -8 29 -23z"/>
<path d="M2665 2420 l0 -60 48 0 c42 0 47 2 46 23 -1 16 -2 18 -6 5 -3 -12
-14 -18 -33 -18 -22 0 -29 5 -32 25 -5 26 16 36 25 13 3 -7 6 1 6 17 1 23 -2
27 -9 15 -9 -13 -11 -13 -19 0 -5 8 -7 18 -5 22 8 13 52 9 57 -4 3 -8 6 -6 6
5 1 14 -7 17 -41 17 l-43 0 0 -60z"/>
<path d="M2800 2465 c-16 -19 1 -42 33 -47 27 -4 35 -36 11 -45 -9 -3 -25 -1
-35 6 -15 9 -19 8 -19 -2 0 -15 21 -19 58 -11 15 3 22 11 22 29 0 19 -7 26
-32 33 -17 4 -33 13 -36 20 -6 18 28 27 49 13 15 -9 19 -8 19 2 0 18 -55 20
-70 2z"/>
<path d="M2901 2458 c1 -17 2 -19 6 -5 2 9 11 17 19 17 18 0 20 -96 2 -103 -7
-3 3 -5 22 -5 19 0 27 2 18 5 -14 3 -18 15 -18 54 0 52 13 63 36 32 12 -17 13
-16 11 5 -1 19 -7 22 -49 22 -43 0 -48 -2 -47 -22z"/>
<path d="M3039 2472 c11 -8 11 -16 1 -48 -7 -22 -17 -45 -23 -51 -7 -10 -3
-13 14 -12 13 0 19 3 12 5 -22 10 -1 34 29 34 25 0 29 -3 25 -20 -4 -15 0 -20
14 -20 16 0 17 3 9 18 -6 9 -16 35 -24 57 -11 33 -18 40 -42 43 -20 2 -25 0
-15 -6z m41 -21 c0 -5 3 -16 6 -25 4 -12 0 -16 -15 -16 -22 0 -25 8 -15 34 7
17 24 22 24 7z"/>
<path d="M3145 2420 c0 -53 2 -60 20 -60 15 0 16 3 7 12 -18 18 -14 38 8 38
11 0 27 -11 36 -25 9 -14 21 -25 28 -25 7 0 7 3 1 8 -29 21 -36 40 -24 60 18
28 -3 52 -45 52 l-31 0 0 -60z m70 25 c0 -14 -8 -21 -27 -23 -28 -3 -33 4 -22
33 9 23 49 15 49 -10z"/>
<path d="M3261 2458 c1 -17 2 -19 6 -5 2 9 11 17 19 17 18 0 20 -96 2 -103 -7
-3 3 -5 22 -5 19 0 27 2 18 5 -24 6 -26 103 -3 103 8 0 15 -5 15 -11 0 -5 5
-7 10 -4 20 13 -2 25 -46 25 -39 0 -44 -2 -43 -22z"/>
<path d="M3637 2462 c-10 -10 -17 -30 -17 -44 0 -48 62 -77 91 -41 13 15 12
15 -8 5 -33 -18 -52 -14 -65 13 -15 33 2 72 34 78 21 4 21 4 2 6 -11 0 -28 -7
-37 -17z"/>
<path d="M3705 2471 c-3 -5 -1 -12 5 -16 5 -3 10 1 10 9 0 18 -6 21 -15 7z"/>
<path d="M3990 2429 c3 -34 11 -56 23 -63 29 -18 52 4 55 55 2 24 9 47 15 51
7 4 -1 8 -18 8 -20 0 -26 -3 -17 -9 9 -5 12 -24 10 -52 -3 -39 -6 -44 -28 -44
-22 0 -25 5 -28 44 -2 28 1 47 10 52 9 6 7 9 -7 9 -19 0 -20 -5 -15 -51z"/>
<path d="M5188 2473 c7 -3 12 -24 12 -53 0 -29 -5 -50 -12 -53 -7 -3 5 -5 27
-5 22 0 30 3 18 5 -20 4 -23 11 -23 53 0 42 3 49 23 53 12 2 4 5 -18 5 -22 0
-34 -2 -27 -5z"/>
<path d="M5680 2465 c0 -8 -6 -15 -12 -15 -10 0 -10 -2 -1 -8 6 -4 13 -20 15
-36 4 -38 29 -54 60 -38 21 10 20 10 -9 5 -24 -4 -33 -2 -34 8 -1 8 -2 23 -3
34 -1 15 7 22 29 26 l30 6 -34 2 c-25 1 -32 5 -27 16 3 8 1 15 -4 15 -6 0 -10
-7 -10 -15z"/>
<path d="M6161 2468 c0 -10 -7 -18 -13 -18 -10 0 -10 -2 -1 -8 6 -4 13 -20 15
-36 4 -38 29 -54 60 -38 21 10 21 10 -8 5 -30 -5 -32 -3 -36 31 -4 33 -2 35
27 39 l30 4 -32 1 c-21 1 -33 8 -36 20 -4 16 -5 16 -6 0z"/>
<path d="M6520 2465 c0 -8 -6 -15 -12 -15 -10 0 -10 -2 -1 -8 6 -4 13 -20 15
-36 4 -38 28 -53 60 -39 21 10 21 11 -12 9 -34 -1 -37 3 -31 53 1 5 13 12 29
14 24 4 24 4 -7 6 -25 1 -32 5 -27 16 3 8 1 15 -4 15 -6 0 -10 -7 -10 -15z"/>
<path d="M5265 2420 c0 -26 3 -46 8 -43 9 6 9 80 -1 86 -4 3 -7 -16 -7 -43z"/>
<path d="M3415 2441 c-7 -12 12 -24 25 -16 11 7 4 25 -10 25 -5 0 -11 -4 -15
-9z"/>
<path d="M3775 2441 c-7 -12 12 -24 25 -16 11 7 4 25 -10 25 -5 0 -11 -4 -15
-9z"/>
<path d="M4123 2443 c-22 -8 -14 -22 19 -31 17 -4 33 -13 36 -20 6 -18 -28
-27 -49 -13 -15 9 -19 8 -19 -2 0 -15 49 -21 70 -7 20 13 2 44 -29 48 -11 2
-21 8 -21 13 0 13 34 11 48 -3 9 -9 12 -9 12 3 0 15 -42 23 -67 12z"/>
<path d="M4231 2431 c-15 -27 -14 -37 5 -55 16 -17 59 -22 68 -8 3 5 -7 7 -23
4 -17 -2 -32 2 -40 12 -12 14 -8 16 34 16 47 0 47 0 33 23 -20 30 -63 35 -77
8z m67 -8 c2 -9 -8 -13 -33 -13 -33 0 -36 2 -25 15 15 18 51 16 58 -2z"/>
<path d="M4358 2443 c6 -2 12 -20 12 -38 0 -18 -6 -36 -12 -38 -7 -3 5 -5 27
-5 22 0 30 3 18 5 -16 3 -23 11 -23 27 0 29 24 50 47 42 15 -6 16 -5 5 6 -10
10 -16 10 -32 0 -12 -7 -20 -8 -20 -2 0 5 -8 10 -17 9 -11 0 -13 -3 -5 -6z"/>
<path d="M4483 2443 c-22 -8 -14 -22 19 -31 17 -4 33 -13 36 -20 6 -18 -28
-27 -49 -13 -15 9 -19 8 -19 -2 0 -15 21 -19 58 -11 35 7 29 43 -8 51 -16 3
-30 9 -30 14 0 13 34 11 48 -3 9 -9 12 -9 12 3 0 15 -42 23 -67 12z"/>
<path d="M4724 2405 c12 -25 24 -45 28 -45 4 0 15 17 23 37 9 21 21 41 28 45
7 5 0 8 -18 8 -17 0 -25 -4 -18 -8 8 -5 8 -14 -1 -37 l-13 -30 -12 23 c-7 13
-10 30 -7 38 3 9 -1 14 -13 14 -17 0 -16 -3 3 -45z"/>
<path d="M4843 2443 c-22 -8 -14 -22 19 -31 17 -4 33 -13 36 -20 6 -18 -28
-27 -49 -13 -15 9 -19 8 -19 -2 0 -15 49 -21 70 -7 20 13 2 44 -29 48 -11 2
-21 8 -21 13 0 13 34 11 48 -3 9 -9 12 -9 12 3 0 15 -42 23 -67 12z"/>
<path d="M5311 2431 c-15 -27 -14 -37 5 -55 16 -17 59 -22 68 -8 3 5 -7 7 -23
4 -17 -2 -32 2 -40 12 -12 14 -8 16 34 16 47 0 47 0 33 23 -20 30 -63 35 -77
8z m67 -8 c2 -9 -8 -13 -33 -13 -33 0 -36 2 -25 15 15 18 51 16 58 -2z"/>
<path d="M5443 2443 c-22 -8 -14 -22 19 -31 17 -4 33 -13 36 -20 6 -18 -28
-27 -49 -13 -15 9 -19 8 -19 -2 0 -15 21 -19 58 -11 35 7 29 43 -8 51 -16 3
-30 9 -30 14 0 13 34 11 48 -3 9 -9 12 -9 12 3 0 15 -42 23 -67 12z"/>
<path d="M5796 2434 c-9 -8 -16 -22 -16 -29 0 -20 28 -45 50 -45 22 0 50 25
50 45 0 20 -28 45 -50 45 -10 0 -26 -7 -34 -16z m67 -16 c8 -12 7 -21 -2 -32
-19 -22 -48 -20 -61 5 -23 41 38 68 63 27z"/>
<path d="M5898 2443 c7 -3 12 -24 12 -58 0 -33 -5 -55 -12 -58 -7 -3 3 -5 22
-5 19 0 27 2 18 5 -10 2 -18 13 -18 24 0 16 5 18 25 13 31 -8 55 10 55 41 0
32 -19 44 -70 43 -25 0 -39 -3 -32 -5z m87 -38 c0 -25 -4 -30 -24 -30 -32 0
-49 28 -31 50 7 9 23 15 34 13 16 -2 21 -10 21 -33z"/>
<path d="M6271 2431 c-15 -27 -14 -37 5 -55 16 -17 59 -22 68 -8 3 5 -7 7 -23
4 -17 -2 -32 2 -40 12 -12 14 -8 16 34 16 47 0 47 0 33 23 -20 30 -63 35 -77
8z m67 -8 c2 -9 -8 -13 -33 -13 -33 0 -36 2 -25 15 15 18 51 16 58 -2z"/>
<path d="M6403 2443 c-22 -8 -14 -22 19 -31 17 -4 33 -13 36 -20 6 -18 -28
-27 -49 -13 -15 9 -19 8 -19 -2 0 -15 21 -19 58 -11 35 7 29 43 -8 51 -16 3
-30 9 -30 14 0 13 34 11 48 -3 9 -9 12 -9 12 3 0 15 -42 23 -67 12z"/>
<path d="M6858 2443 c7 -3 12 -24 12 -58 0 -33 -5 -55 -12 -58 -7 -3 3 -5 22
-5 19 0 27 2 18 5 -10 2 -18 13 -18 24 0 16 5 18 25 13 31 -8 55 10 55 41 0
32 -19 44 -70 43 -25 0 -39 -3 -32 -5z m87 -38 c0 -25 -4 -30 -24 -30 -32 0
-49 28 -31 50 7 9 23 15 34 13 16 -2 21 -10 21 -33z"/>
<path d="M7006 2406 c27 -48 24 -73 -9 -79 -15 -3 -11 -5 11 -6 18 0 31 3 27
8 -6 11 34 102 50 113 6 4 0 8 -13 8 -13 0 -20 -4 -17 -10 3 -5 0 -22 -8 -37
l-14 -27 -12 23 c-7 12 -10 29 -7 37 3 9 -1 14 -14 14 -17 0 -17 -3 6 -44z"/>
<path d="M43 2433 c15 -2 39 -2 55 0 15 2 2 4 -28 4 -30 0 -43 -2 -27 -4z"/>
<path d="M163 2433 c15 -2 39 -2 55 0 15 2 2 4 -28 4 -30 0 -43 -2 -27 -4z"/>
<path d="M283 2433 c15 -2 39 -2 55 0 15 2 2 4 -28 4 -30 0 -43 -2 -27 -4z"/>
<path d="M403 2433 c15 -2 39 -2 55 0 15 2 2 4 -28 4 -30 0 -43 -2 -27 -4z"/>
<path d="M523 2433 c15 -2 39 -2 55 0 15 2 2 4 -28 4 -30 0 -43 -2 -27 -4z"/>
<path d="M643 2433 c15 -2 39 -2 55 0 15 2 2 4 -28 4 -30 0 -43 -2 -27 -4z"/>
<path d="M763 2433 c15 -2 39 -2 55 0 15 2 2 4 -28 4 -30 0 -43 -2 -27 -4z"/>
<path d="M883 2433 c15 -2 39 -2 55 0 15 2 2 4 -28 4 -30 0 -43 -2 -27 -4z"/>
<path d="M1003 2433 c15 -2 39 -2 55 0 15 2 2 4 -28 4 -30 0 -43 -2 -27 -4z"/>
<path d="M1123 2433 c15 -2 39 -2 55 0 15 2 2 4 -28 4 -30 0 -43 -2 -27 -4z"/>
<path d="M1243 2433 c15 -2 39 -2 55 0 15 2 2 4 -28 4 -30 0 -43 -2 -27 -4z"/>
<path d="M1363 2433 c15 -2 39 -2 55 0 15 2 2 4 -28 4 -30 0 -43 -2 -27 -4z"/>
<path d="M1483 2433 c15 -2 39 -2 55 0 15 2 2 4 -28 4 -30 0 -43 -2 -27 -4z"/>
<path d="M1603 2433 c15 -2 39 -2 55 0 15 2 2 4 -28 4 -30 0 -43 -2 -27 -4z"/>
<path d="M1723 2433 c15 -2 39 -2 55 0 15 2 2 4 -28 4 -30 0 -43 -2 -27 -4z"/>
<path d="M1843 2433 c15 -2 39 -2 55 0 15 2 2 4 -28 4 -30 0 -43 -2 -27 -4z"/>
<path d="M1963 2433 c15 -2 39 -2 55 0 15 2 2 4 -28 4 -30 0 -43 -2 -27 -4z"/>
<path d="M2083 2433 c15 -2 39 -2 55 0 15 2 2 4 -28 4 -30 0 -43 -2 -27 -4z"/>
<path d="M2203 2433 c15 -2 39 -2 55 0 15 2 2 4 -28 4 -30 0 -43 -2 -27 -4z"/>
<path d="M2323 2433 c15 -2 39 -2 55 0 15 2 2 4 -28 4 -30 0 -43 -2 -27 -4z"/>
<path d="M7243 2433 c15 -2 39 -2 55 0 15 2 2 4 -28 4 -30 0 -43 -2 -27 -4z"/>
<path d="M7363 2433 c15 -2 39 -2 55 0 15 2 2 4 -28 4 -30 0 -43 -2 -27 -4z"/>
<path d="M7483 2433 c15 -2 39 -2 55 0 15 2 2 4 -28 4 -30 0 -43 -2 -27 -4z"/>
<path d="M7603 2433 c15 -2 39 -2 55 0 15 2 2 4 -28 4 -30 0 -43 -2 -27 -4z"/>
<path d="M7723 2433 c15 -2 39 -2 55 0 15 2 2 4 -28 4 -30 0 -43 -2 -27 -4z"/>
<path d="M7843 2433 c15 -2 39 -2 55 0 15 2 2 4 -28 4 -30 0 -43 -2 -27 -4z"/>
<path d="M7963 2433 c15 -2 39 -2 55 0 15 2 2 4 -28 4 -30 0 -43 -2 -27 -4z"/>
<path d="M8073 2433 c9 -2 25 -2 35 0 9 3 1 5 -18 5 -19 0 -27 -2 -17 -5z"/>
<path d="M43 2403 c15 -2 39 -2 55 0 15 2 2 4 -28 4 -30 0 -43 -2 -27 -4z"/>
<path d="M163 2403 c15 -2 39 -2 55 0 15 2 2 4 -28 4 -30 0 -43 -2 -27 -4z"/>
<path d="M283 2403 c15 -2 39 -2 55 0 15 2 2 4 -28 4 -30 0 -43 -2 -27 -4z"/>
<path d="M403 2403 c15 -2 39 -2 55 0 15 2 2 4 -28 4 -30 0 -43 -2 -27 -4z"/>
<path d="M523 2403 c15 -2 39 -2 55 0 15 2 2 4 -28 4 -30 0 -43 -2 -27 -4z"/>
<path d="M643 2403 c15 -2 39 -2 55 0 15 2 2 4 -28 4 -30 0 -43 -2 -27 -4z"/>
<path d="M763 2403 c15 -2 39 -2 55 0 15 2 2 4 -28 4 -30 0 -43 -2 -27 -4z"/>
<path d="M883 2403 c15 -2 39 -2 55 0 15 2 2 4 -28 4 -30 0 -43 -2 -27 -4z"/>
<path d="M1003 2403 c15 -2 39 -2 55 0 15 2 2 4 -28 4 -30 0 -43 -2 -27 -4z"/>
<path d="M1123 2403 c15 -2 39 -2 55 0 15 2 2 4 -28 4 -30 0 -43 -2 -27 -4z"/>
<path d="M1243 2403 c15 -2 39 -2 55 0 15 2 2 4 -28 4 -30 0 -43 -2 -27 -4z"/>
<path d="M1363 2403 c15 -2 39 -2 55 0 15 2 2 4 -28 4 -30 0 -43 -2 -27 -4z"/>
<path d="M1483 2403 c15 -2 39 -2 55 0 15 2 2 4 -28 4 -30 0 -43 -2 -27 -4z"/>
<path d="M1603 2403 c15 -2 39 -2 55 0 15 2 2 4 -28 4 -30 0 -43 -2 -27 -4z"/>
<path d="M1723 2403 c15 -2 39 -2 55 0 15 2 2 4 -28 4 -30 0 -43 -2 -27 -4z"/>
<path d="M1843 2403 c15 -2 39 -2 55 0 15 2 2 4 -28 4 -30 0 -43 -2 -27 -4z"/>
<path d="M1963 2403 c15 -2 39 -2 55 0 15 2 2 4 -28 4 -30 0 -43 -2 -27 -4z"/>
<path d="M2083 2403 c15 -2 39 -2 55 0 15 2 2 4 -28 4 -30 0 -43 -2 -27 -4z"/>
<path d="M2203 2403 c15 -2 39 -2 55 0 15 2 2 4 -28 4 -30 0 -43 -2 -27 -4z"/>
<path d="M2323 2403 c15 -2 39 -2 55 0 15 2 2 4 -28 4 -30 0 -43 -2 -27 -4z"/>
<path d="M7243 2403 c15 -2 39 -2 55 0 15 2 2 4 -28 4 -30 0 -43 -2 -27 -4z"/>
<path d="M7363 2403 c15 -2 39 -2 55 0 15 2 2 4 -28 4 -30 0 -43 -2 -27 -4z"/>
<path d="M7483 2403 c15 -2 39 -2 55 0 15 2 2 4 -28 4 -30 0 -43 -2 -27 -4z"/>
<path d="M7603 2403 c15 -2 39 -2 55 0 15 2 2 4 -28 4 -30 0 -43 -2 -27 -4z"/>
<path d="M7723 2403 c15 -2 39 -2 55 0 15 2 2 4 -28 4 -30 0 -43 -2 -27 -4z"/>
<path d="M7843 2403 c15 -2 39 -2 55 0 15 2 2 4 -28 4 -30 0 -43 -2 -27 -4z"/>
<path d="M7963 2403 c15 -2 39 -2 55 0 15 2 2 4 -28 4 -30 0 -43 -2 -27 -4z"/>
<path d="M8073 2403 c9 -2 25 -2 35 0 9 3 1 5 -18 5 -19 0 -27 -2 -17 -5z"/>
<path d="M3417 2384 c-8 -8 1 -24 14 -24 5 0 9 7 9 15 0 15 -12 20 -23 9z"/>
<path d="M3777 2384 c-8 -8 1 -24 14 -24 5 0 9 7 9 15 0 15 -12 20 -23 9z"/>
<path d="M6777 2384 c-8 -8 1 -24 14 -24 5 0 9 7 9 15 0 15 -12 20 -23 9z"/>
<path d="M625 2205 c0 -36 4 -64 9 -62 8 3 10 20 7 102 -1 14 -4 25 -8 25 -5
0 -8 -29 -8 -65z"/>
<path d="M995 2260 c3 -5 8 -10 11 -10 2 0 4 5 4 10 0 6 -5 10 -11 10 -5 0 -7
-4 -4 -10z"/>
<path d="M1282 2245 c-14 -30 -15 -84 -3 -104 5 -8 7 3 4 31 -3 26 0 55 7 67
6 13 10 25 7 27 -2 2 -9 -7 -15 -21z"/>
<path d="M3048 2263 c7 -3 16 -2 19 1 4 3 -2 6 -13 5 -11 0 -14 -3 -6 -6z"/>
<path d="M3168 2263 c7 -3 16 -2 19 1 4 3 -2 6 -13 5 -11 0 -14 -3 -6 -6z"/>
<path d="M3408 2263 c7 -3 16 -2 19 1 4 3 -2 6 -13 5 -11 0 -14 -3 -6 -6z"/>
<path d="M3886 2255 c5 -11 8 -40 8 -65 0 -25 -3 -54 -8 -65 -4 -12 -1 -10 8
5 8 14 15 41 15 60 0 19 -7 46 -15 60 -9 15 -12 17 -8 5z"/>
<path d="M21 2238 c1 -17 2 -19 6 -5 2 9 11 17 19 17 18 0 20 -96 2 -103 -7
-3 3 -5 22 -5 19 0 27 2 18 5 -14 3 -18 15 -18 53 0 42 3 49 23 53 12 2 1 5
-25 6 -44 1 -48 -1 -47 -21z"/>
<path d="M1709 2230 c-17 -11 11 -17 46 -10 l30 6 -32 5 c-18 3 -38 2 -44 -1z"/>
<path d="M2549 2230 c-17 -11 11 -17 46 -10 l30 6 -32 5 c-18 3 -38 2 -44 -1z"/>
<path d="M3749 2230 c-17 -11 11 -17 46 -10 l30 6 -32 5 c-18 3 -38 2 -44 -1z"/>
<path d="M158 2223 c6 -2 12 -20 12 -38 0 -18 -6 -36 -12 -38 -7 -3 5 -5 27
-5 22 0 30 3 18 5 -16 3 -23 11 -23 27 0 29 24 50 47 42 15 -6 16 -5 5 6 -10
10 -16 10 -32 0 -12 -7 -20 -8 -20 -2 0 5 -8 10 -17 9 -11 0 -13 -3 -5 -6z"/>
<path d="M288 2223 c6 -2 18 -2 25 0 6 3 1 5 -13 5 -14 0 -19 -2 -12 -5z"/>
<path d="M402 2218 c-7 -7 -12 -16 -12 -22 0 -5 6 -3 13 6 6 9 21 18 32 21 20
5 20 5 0 6 -12 0 -26 -4 -33 -11z"/>
<path d="M549 2221 c14 -4 27 -13 29 -20 3 -10 -6 -12 -37 -9 -24 2 -41 -1
-41 -7 0 -6 18 -9 45 -7 45 4 56 17 33 40 -7 7 -21 12 -32 11 -18 -1 -18 -2 3
-8z"/>
<path d="M668 2223 c7 -3 16 -2 19 1 4 3 -2 6 -13 5 -11 0 -14 -3 -6 -6z"/>
<path d="M768 2223 c6 -2 18 -2 25 0 6 3 1 5 -13 5 -14 0 -19 -2 -12 -5z"/>
<path d="M882 2218 c-7 -7 -12 -16 -12 -22 0 -5 6 -3 13 6 6 9 21 18 32 21 20
5 20 5 0 6 -12 0 -26 -4 -33 -11z"/>
<path d="M1045 2220 c3 -5 12 -7 20 -3 21 7 19 13 -6 13 -11 0 -18 -4 -14 -10z"/>
<path d="M1337 2213 c4 -10 9 -11 19 -2 7 6 17 8 23 5 5 -3 20 -2 32 3 18 6
12 8 -28 8 -38 -1 -50 -4 -46 -14z"/>
<path d="M1498 2223 c6 -2 18 -2 25 0 6 3 1 5 -13 5 -14 0 -19 -2 -12 -5z"/>
<path d="M1606 2221 c-3 -5 3 -7 14 -4 11 3 27 0 35 -7 12 -10 15 -10 15 2 0
16 -55 24 -64 9z"/>
<path d="M1958 2223 c6 -2 12 -20 12 -38 0 -18 -6 -36 -12 -38 -7 -3 5 -5 27
-5 22 0 30 3 18 5 -16 3 -23 11 -23 27 0 29 24 50 47 42 15 -6 16 -5 5 6 -10
10 -16 10 -32 0 -12 -7 -20 -8 -20 -2 0 5 -8 10 -17 9 -11 0 -13 -3 -5 -6z"/>
<path d="M2109 2221 c14 -4 27 -13 29 -20 3 -10 -6 -12 -37 -9 -24 2 -41 -1
-41 -7 0 -6 18 -9 45 -7 45 4 56 17 33 40 -7 7 -21 12 -32 11 -18 -1 -18 -2 3
-8z"/>
<path d="M2202 2218 c-7 -7 -12 -16 -12 -22 0 -5 6 -3 13 6 6 9 21 18 32 21
20 5 20 5 0 6 -12 0 -26 -4 -33 -11z"/>
<path d="M2349 2221 c14 -4 27 -13 29 -20 3 -10 -6 -12 -37 -9 -24 2 -41 -1
-41 -7 0 -6 18 -9 45 -7 45 4 56 17 33 40 -7 7 -21 12 -32 11 -18 -1 -18 -2 3
-8z"/>
<path d="M2429 2222 c6 -2 9 -8 5 -13 -3 -5 -1 -9 5 -9 5 0 13 5 17 11 3 6 15
9 25 6 11 -3 17 -1 14 3 -3 4 -21 8 -41 7 -20 -1 -32 -3 -25 -5z"/>
<path d="M2802 2218 c-7 -7 -12 -16 -12 -22 0 -5 6 -3 13 6 6 9 21 18 32 21
20 5 20 5 0 6 -12 0 -26 -4 -33 -11z"/>
<path d="M2928 2223 c6 -2 18 -2 25 0 6 3 1 5 -13 5 -14 0 -19 -2 -12 -5z"/>
<path d="M3528 2223 c6 -2 18 -2 25 0 6 3 1 5 -13 5 -14 0 -19 -2 -12 -5z"/>
<path d="M3646 2221 c-3 -5 3 -7 14 -4 11 3 27 0 35 -7 12 -10 15 -10 15 2 0
16 -55 24 -64 9z"/>
<path d="M4017 2224 c-8 -8 1 -24 14 -24 5 0 9 7 9 15 0 15 -12 20 -23 9z"/>
<path d="M332 2208 c-1 -12 -10 -18 -26 -18 -14 0 -27 -4 -30 -8 -3 -5 9 -6
26 -4 23 4 29 1 26 -9 -3 -8 -17 -14 -31 -14 -14 1 -24 -3 -21 -7 2 -3 23 -6
45 -6 23 0 37 3 31 7 -6 3 -12 22 -15 41 -2 19 -5 27 -5 18z"/>
<path d="M812 2208 c-1 -12 -10 -18 -26 -18 -14 0 -27 -4 -30 -8 -3 -5 9 -6
26 -4 23 4 29 1 26 -9 -3 -8 -17 -14 -31 -14 -14 1 -24 -3 -21 -7 2 -3 23 -6
45 -6 23 0 37 3 31 7 -6 3 -12 22 -15 41 -2 19 -5 27 -5 18z"/>
<path d="M2972 2208 c-1 -12 -10 -18 -26 -18 -14 0 -27 -4 -30 -8 -3 -5 9 -6
26 -4 23 4 29 1 26 -9 -3 -8 -17 -14 -31 -14 -14 1 -24 -3 -21 -7 2 -3 23 -6
45 -6 23 0 37 3 31 7 -6 3 -12 22 -15 41 -2 19 -5 27 -5 18z"/>
<path d="M3572 2208 c-1 -12 -10 -18 -26 -18 -14 0 -27 -4 -30 -8 -3 -5 9 -6
26 -4 23 4 29 1 26 -9 -3 -8 -17 -14 -31 -14 -14 1 -24 -3 -21 -7 2 -3 23 -6
45 -6 23 0 37 3 31 7 -6 3 -12 22 -15 41 -2 19 -5 27 -5 18z"/>
<path d="M1001 2207 c-1 -11 58 -67 69 -67 5 0 -3 13 -18 28 -15 15 -30 27
-34 25 -3 -2 -9 3 -11 9 -3 7 -6 9 -6 5z"/>
<path d="M1430 2175 c0 -19 4 -35 8 -35 4 0 6 16 4 35 -2 19 -6 35 -8 35 -2 0
-4 -16 -4 -35z"/>
<path d="M711 2184 c0 -11 3 -14 6 -6 3 7 2 16 -1 19 -3 4 -6 -2 -5 -13z"/>
<path d="M1618 2193 c6 -2 18 -2 25 0 6 3 1 5 -13 5 -14 0 -19 -2 -12 -5z"/>
<path d="M3658 2193 c6 -2 18 -2 25 0 6 3 1 5 -13 5 -14 0 -19 -2 -12 -5z"/>
<path d="M390 2174 c0 -18 27 -36 47 -31 14 4 14 5 -4 6 -12 0 -27 9 -32 19
-6 9 -11 12 -11 6z"/>
<path d="M870 2174 c0 -18 27 -36 47 -31 14 4 14 5 -4 6 -12 0 -27 9 -32 19
-6 9 -11 12 -11 6z"/>
<path d="M2190 2174 c0 -18 27 -36 47 -31 14 4 14 5 -4 6 -12 0 -27 9 -32 19
-6 9 -11 12 -11 6z"/>
<path d="M2790 2174 c0 -18 27 -36 47 -31 14 4 14 5 -4 6 -12 0 -27 9 -32 19
-6 9 -11 12 -11 6z"/>
<path d="M1535 2161 c-6 -5 -19 -11 -30 -14 -19 -4 -19 -5 1 -6 12 0 27 6 34
14 14 16 10 20 -5 6z"/>
<path d="M1590 2158 c0 -9 12 -14 33 -15 18 -1 23 1 12 4 -11 3 -26 10 -32 15
-9 8 -13 6 -13 -4z"/>
<path d="M3630 2158 c0 -9 12 -14 33 -15 18 -1 23 1 12 4 -11 3 -26 10 -32 15
-9 8 -13 6 -13 -4z"/>
<path d="M4017 2164 c-8 -8 1 -24 14 -24 5 0 9 7 9 15 0 15 -12 20 -23 9z"/>
<path d="M1335 2150 c-4 -6 3 -10 14 -10 25 0 27 6 6 13 -8 4 -17 2 -20 -3z"/>
<path d="M1737 2148 c2 -5 13 -8 23 -8 10 0 21 3 23 8 3 4 -8 7 -23 7 -15 0
-26 -3 -23 -7z"/>
<path d="M2577 2148 c2 -5 13 -8 23 -8 10 0 21 3 23 8 3 4 -8 7 -23 7 -15 0
-26 -3 -23 -7z"/>
<path d="M3777 2148 c2 -5 13 -8 23 -8 10 0 21 3 23 8 3 4 -8 7 -23 7 -15 0
-26 -3 -23 -7z"/>
<path d="M538 2143 c6 -2 18 -2 25 0 6 3 1 5 -13 5 -14 0 -19 -2 -12 -5z"/>
<path d="M668 2143 c7 -3 16 -2 19 1 4 3 -2 6 -13 5 -11 0 -14 -3 -6 -6z"/>
<path d="M2098 2143 c6 -2 18 -2 25 0 6 3 1 5 -13 5 -14 0 -19 -2 -12 -5z"/>
<path d="M2338 2143 c6 -2 18 -2 25 0 6 3 1 5 -13 5 -14 0 -19 -2 -12 -5z"/>
<path d="M2428 2143 c6 -2 18 -2 25 0 6 3 1 5 -13 5 -14 0 -19 -2 -12 -5z"/>
<path d="M2488 2143 c6 -2 18 -2 25 0 6 3 1 5 -13 5 -14 0 -19 -2 -12 -5z"/>
<path d="M3048 2143 c12 -2 32 -2 45 0 12 2 2 4 -23 4 -25 0 -35 -2 -22 -4z"/>
<path d="M3168 2143 c12 -2 32 -2 45 0 12 2 2 4 -23 4 -25 0 -35 -2 -22 -4z"/>
<path d="M3408 2143 c12 -2 32 -2 45 0 12 2 2 4 -23 4 -25 0 -35 -2 -22 -4z"/>
<path d="M528 2043 c7 -3 16 -2 19 1 4 3 -2 6 -13 5 -11 0 -14 -3 -6 -6z"/>
<path d="M880 2024 c0 -14 4 -23 10 -19 6 3 10 15 10 26 0 10 -4 19 -10 19 -5
0 -10 -12 -10 -26z"/>
<path d="M920 2031 c0 -11 5 -23 10 -26 6 -4 10 5 10 19 0 14 -4 26 -10 26 -5
0 -10 -9 -10 -19z"/>
<path d="M1274 1999 c-14 -28 -24 -53 -22 -55 2 -2 16 21 31 51 15 30 25 55
22 55 -3 0 -16 -23 -31 -51z"/>
<path d="M1994 1999 c-14 -28 -24 -53 -22 -55 2 -2 16 21 31 51 15 30 25 55
22 55 -3 0 -16 -23 -31 -51z"/>
<path d="M2376 1988 c1 -34 5 -63 10 -65 5 -2 7 26 6 62 -5 83 -17 85 -16 3z"/>
<path d="M3434 1999 c-14 -28 -24 -53 -22 -55 2 -2 16 21 31 51 15 30 25 55
22 55 -3 0 -16 -23 -31 -51z"/>
<path d="M4480 2024 c0 -14 4 -23 10 -19 6 3 10 15 10 26 0 10 -4 19 -10 19
-5 0 -10 -12 -10 -26z"/>
<path d="M4520 2025 c0 -14 5 -25 10 -25 6 0 10 11 10 25 0 14 -4 25 -10 25
-5 0 -10 -11 -10 -25z"/>
<path d="M4848 2043 c7 -3 16 -2 19 1 4 3 -2 6 -13 5 -11 0 -14 -3 -6 -6z"/>
<path d="M6576 1988 c1 -34 5 -63 10 -65 5 -2 7 26 6 62 -5 83 -17 85 -16 3z"/>
<path d="M6768 2043 c7 -3 16 -2 19 1 4 3 -2 6 -13 5 -11 0 -14 -3 -6 -6z"/>
<path d="M275 1980 c0 -58 1 -60 25 -59 17 1 19 3 8 6 -22 5 -25 53 -4 53 8 0
17 -6 19 -12 3 -7 5 1 5 17 0 17 -2 24 -5 18 -8 -21 -33 -15 -33 7 0 15 7 20
29 20 16 0 32 -6 34 -12 3 -8 6 -6 6 5 1 14 -7 17 -41 17 l-43 0 0 -60z"/>
<path d="M999 2023 c-12 -16 -12 -17 1 -7 8 7 24 14 35 17 19 4 19 5 -1 6 -12
0 -28 -7 -35 -16z"/>
<path d="M1350 1989 c3 -34 11 -56 23 -63 30 -19 51 5 57 63 5 46 4 51 -15 51
-14 0 -16 -3 -7 -9 9 -5 12 -24 10 -52 -3 -39 -6 -44 -28 -44 -22 0 -25 5 -28
44 -2 28 1 47 10 52 9 6 7 9 -7 9 -19 0 -20 -5 -15 -51z"/>
<path d="M2472 1995 c-30 -62 -27 -71 4 -12 14 27 24 51 22 53 -3 2 -14 -17
-26 -41z"/>
<path d="M2548 2033 c7 -3 12 -24 12 -53 0 -29 -5 -50 -12 -53 -7 -3 5 -5 27
-5 22 0 30 3 18 5 -20 4 -23 11 -23 53 0 42 3 49 23 53 12 2 4 5 -18 5 -22 0
-34 -2 -27 -5z"/>
<path d="M3028 2008 c-8 -4 4 -8 30 -8 23 0 42 2 42 4 0 8 -60 12 -72 4z"/>
<path d="M3508 2008 c-8 -4 4 -8 30 -8 23 0 42 2 42 4 0 8 -60 12 -72 4z"/>
<path d="M3868 2008 c-8 -4 4 -8 30 -8 23 0 42 2 42 4 0 8 -60 12 -72 4z"/>
<path d="M408 2003 c7 -3 16 -2 19 1 4 3 -2 6 -13 5 -11 0 -14 -3 -6 -6z"/>
<path d="M669 2001 c14 -4 27 -13 29 -20 3 -10 -6 -12 -37 -9 -24 2 -41 -1
-41 -7 0 -6 18 -9 45 -7 45 4 56 17 33 40 -7 7 -21 12 -32 11 -18 -1 -18 -2 3
-8z"/>
<path d="M1137 2004 c-8 -8 1 -24 14 -24 5 0 9 7 9 15 0 15 -12 20 -23 9z"/>
<path d="M1486 2001 c-3 -5 3 -7 14 -4 11 3 27 0 35 -7 12 -10 15 -10 15 2 0
16 -55 24 -64 9z"/>
<path d="M1629 2001 c14 -4 27 -13 29 -20 3 -10 -6 -12 -37 -9 -24 2 -41 -1
-41 -7 0 -6 18 -9 45 -7 45 4 56 17 33 40 -7 7 -21 12 -32 11 -18 -1 -18 -2 3
-8z"/>
<path d="M1718 2003 c6 -2 12 -20 12 -38 0 -18 -6 -36 -12 -38 -7 -3 5 -5 27
-5 22 0 30 3 18 5 -16 3 -23 11 -23 27 0 29 24 50 47 42 15 -6 16 -5 5 6 -10
10 -16 10 -32 0 -12 -7 -20 -8 -20 -2 0 5 -8 10 -17 9 -11 0 -13 -3 -5 -6z"/>
<path d="M1847 2003 c-3 -5 10 -8 29 -9 19 0 34 2 34 6 0 9 -58 11 -63 3z"/>
<path d="M2071 1993 c21 -28 23 -29 16 -11 -3 9 -1 19 6 22 7 2 1 5 -12 5 -21
1 -22 -1 -10 -16z"/>
<path d="M2120 2006 c0 -9 30 -14 35 -6 4 6 -3 10 -14 10 -12 0 -21 -2 -21 -4z"/>
<path d="M2206 2001 c-3 -5 3 -7 14 -4 11 3 27 0 35 -7 12 -10 15 -10 15 2 0
16 -55 24 -64 9z"/>
<path d="M2338 2003 c7 -3 16 -2 19 1 4 3 -2 6 -13 5 -11 0 -14 -3 -6 -6z"/>
<path d="M2632 1980 c0 -19 2 -27 5 -17 2 9 2 25 0 35 -3 9 -5 1 -5 -18z"/>
<path d="M2709 2001 c14 -4 27 -13 29 -20 3 -10 -6 -12 -37 -9 -24 2 -41 -1
-41 -7 0 -6 18 -9 45 -7 45 4 56 17 33 40 -7 7 -21 12 -32 11 -18 -1 -18 -2 3
-8z"/>
<path d="M2807 2003 c-3 -5 10 -8 29 -9 19 0 34 2 34 6 0 9 -58 11 -63 3z"/>
<path d="M2965 2000 c3 -5 12 -7 20 -3 21 7 19 13 -6 13 -11 0 -18 -4 -14 -10z"/>
<path d="M3178 2003 c6 -2 18 -2 25 0 6 3 1 5 -13 5 -14 0 -19 -2 -12 -5z"/>
<path d="M3265 1945 c0 -58 2 -65 20 -65 15 0 17 3 7 9 -9 5 -13 25 -11 61 2
30 -1 55 -6 57 -6 2 -10 -25 -10 -62z"/>
<path d="M3308 2003 c7 -3 16 -2 19 1 4 3 -2 6 -13 5 -11 0 -14 -3 -6 -6z"/>
<path d="M3669 2001 c14 -4 27 -13 29 -20 3 -10 -6 -12 -37 -9 -24 2 -41 -1
-41 -7 0 -6 18 -9 45 -7 45 4 56 17 33 40 -7 7 -21 12 -32 11 -18 -1 -18 -2 3
-8z"/>
<path d="M3767 2003 c-3 -5 10 -8 29 -9 19 0 34 2 34 6 0 9 -58 11 -63 3z"/>
<path d="M4225 1945 c0 -58 2 -65 20 -65 15 0 17 3 7 9 -9 5 -13 25 -11 61 2
30 -1 55 -6 57 -6 2 -10 -25 -10 -62z"/>
<path d="M4268 2003 c7 -3 16 -2 19 1 4 3 -2 6 -13 5 -11 0 -14 -3 -6 -6z"/>
<path d="M4366 1966 c27 -48 24 -73 -9 -79 -15 -3 -11 -5 11 -6 18 0 31 3 28
8 -4 5 -2 21 4 36 6 16 6 24 0 20 -11 -7 -42 49 -33 59 4 3 -1 6 -10 6 -13 0
-12 -7 9 -44z"/>
<path d="M4416 1995 c4 -8 7 -15 9 -15 2 0 5 7 9 15 3 9 0 15 -9 15 -9 0 -12
-6 -9 -15z"/>
<path d="M4968 2003 c7 -3 16 -2 19 1 4 3 -2 6 -13 5 -11 0 -14 -3 -6 -6z"/>
<path d="M5072 1993 c8 -10 14 -10 24 -2 8 6 21 9 29 5 9 -3 14 -2 11 3 -3 5
-22 9 -41 8 -27 -1 -32 -4 -23 -14z"/>
<path d="M5229 2001 c14 -4 27 -13 29 -20 3 -10 -6 -12 -37 -9 -24 2 -41 -1
-41 -7 0 -6 18 -9 45 -7 45 4 56 17 33 40 -7 7 -21 12 -32 11 -18 -1 -18 -2 3
-8z"/>
<path d="M5808 2003 c7 -3 16 -2 19 1 4 3 -2 6 -13 5 -11 0 -14 -3 -6 -6z"/>
<path d="M5914 1994 c8 -8 15 -9 23 -2 7 6 20 8 28 4 9 -3 14 -2 11 3 -3 5
-21 9 -40 8 -25 -1 -31 -4 -22 -13z"/>
<path d="M6168 1992 l-27 -18 32 -18 c32 -18 32 -18 9 1 l-24 19 24 17 c32 22
20 21 -14 -1z"/>
<path d="M6256 2001 c3 -3 24 -6 47 -6 41 0 42 -1 45 -37 2 -21 7 -38 12 -38
4 0 7 8 5 18 -15 73 -11 69 -65 69 -27 -1 -47 -3 -44 -6z"/>
<path d="M6418 2003 c6 -2 18 -2 25 0 6 3 1 5 -13 5 -14 0 -19 -2 -12 -5z"/>
<path d="M6538 2003 c7 -3 16 -2 19 1 4 3 -2 6 -13 5 -11 0 -14 -3 -6 -6z"/>
<path d="M6628 1975 c2 -19 6 -35 8 -35 2 0 4 16 4 35 0 19 -4 35 -8 35 -4 0
-6 -16 -4 -35z"/>
<path d="M6909 2001 c14 -4 27 -13 29 -20 3 -10 -6 -12 -37 -9 -24 2 -41 -1
-41 -7 0 -6 18 -9 45 -7 45 4 56 17 33 40 -7 7 -21 12 -32 11 -18 -1 -18 -2 3
-8z"/>
<path d="M7038 1993 l24 -17 -24 -19 c-23 -19 -23 -19 9 -1 33 19 32 23 -12
45 -14 7 -13 4 3 -8z"/>
<path d="M981 1979 c0 -15 7 -33 17 -40 15 -12 16 -12 5 1 -6 8 -13 26 -16 40
l-4 25 -2 -26z"/>
<path d="M1498 1973 c6 -2 18 -2 25 0 6 3 1 5 -13 5 -14 0 -19 -2 -12 -5z"/>
<path d="M1858 1973 c6 -2 18 -2 25 0 6 3 1 5 -13 5 -14 0 -19 -2 -12 -5z"/>
<path d="M2125 1961 c-7 -22 -25 -29 -25 -9 0 6 -2 9 -5 6 -7 -7 5 -38 14 -38
10 0 33 51 27 57 -2 2 -7 -5 -11 -16z"/>
<path d="M2218 1973 c6 -2 18 -2 25 0 6 3 1 5 -13 5 -14 0 -19 -2 -12 -5z"/>
<path d="M2301 1964 c0 -11 3 -14 6 -6 3 7 2 16 -1 19 -3 4 -6 -2 -5 -13z"/>
<path d="M2818 1973 c6 -2 18 -2 25 0 6 3 1 5 -13 5 -14 0 -19 -2 -12 -5z"/>
<path d="M2937 1973 c-6 -6 43 -55 51 -51 4 2 -5 15 -20 29 -15 15 -29 25 -31
22z"/>
<path d="M3351 1964 c0 -11 3 -14 6 -6 3 7 2 16 -1 19 -3 4 -6 -2 -5 -13z"/>
<path d="M3778 1973 c6 -2 18 -2 25 0 6 3 1 5 -13 5 -14 0 -19 -2 -12 -5z"/>
<path d="M4311 1964 c0 -11 3 -14 6 -6 3 7 2 16 -1 19 -3 4 -6 -2 -5 -13z"/>
<path d="M6501 1964 c0 -11 3 -14 6 -6 3 7 2 16 -1 19 -3 4 -6 -2 -5 -13z"/>
<path d="M1137 1944 c-8 -8 1 -24 14 -24 5 0 9 7 9 15 0 15 -12 20 -23 9z"/>
<path d="M1470 1938 c0 -9 12 -14 33 -15 18 -1 23 1 12 4 -11 3 -26 10 -32 15
-9 8 -13 6 -13 -4z"/>
<path d="M1830 1938 c0 -9 12 -14 33 -15 18 -1 23 1 12 4 -11 3 -26 10 -32 15
-9 8 -13 6 -13 -4z"/>
<path d="M2190 1938 c0 -9 12 -14 33 -15 18 -1 23 1 12 4 -11 3 -26 10 -32 15
-9 8 -13 6 -13 -4z"/>
<path d="M2790 1938 c0 -9 12 -14 33 -15 18 -1 23 1 12 4 -11 3 -26 10 -32 15
-9 8 -13 6 -13 -4z"/>
<path d="M2916 1935 c-3 -8 -1 -15 4 -15 6 0 10 7 10 15 0 8 -2 15 -4 15 -2 0
-6 -7 -10 -15z"/>
<path d="M3049 1938 c14 -19 46 -24 55 -9 4 5 -3 7 -14 4 -11 -3 -28 1 -38 8
-15 13 -16 12 -3 -3z"/>
<path d="M3215 1941 c-6 -5 -19 -11 -30 -14 -19 -4 -19 -5 1 -6 12 0 27 6 34
14 14 16 10 20 -5 6z"/>
<path d="M3529 1938 c14 -19 46 -24 55 -9 4 5 -3 7 -14 4 -11 -3 -28 1 -38 8
-15 13 -16 12 -3 -3z"/>
<path d="M3750 1938 c0 -9 12 -14 33 -15 18 -1 23 1 12 4 -11 3 -26 10 -32 15
-9 8 -13 6 -13 -4z"/>
<path d="M4137 1944 c-8 -8 1 -24 14 -24 5 0 9 7 9 15 0 15 -12 20 -23 9z"/>
<path d="M4607 1923 c-7 -39 -1 -40 18 -4 13 26 13 31 1 31 -7 0 -16 -12 -19
-27z"/>
<path d="M5567 1923 c-7 -39 -1 -40 18 -4 13 26 13 31 1 31 -7 0 -16 -12 -19
-27z"/>
<path d="M6257 1935 c-5 -11 0 -15 16 -15 12 0 18 4 12 8 -5 4 -13 11 -16 15
-4 4 -9 1 -12 -8z"/>
<path d="M6455 1941 c-6 -5 -19 -11 -30 -14 -19 -4 -19 -5 1 -6 12 0 27 6 34
14 14 16 10 20 -5 6z"/>
<path d="M3897 1928 c2 -5 13 -8 23 -8 10 0 21 3 23 8 3 4 -8 7 -23 7 -15 0
-26 -3 -23 -7z"/>
<path d="M5065 1930 c-4 -6 3 -10 14 -10 25 0 27 6 6 13 -8 4 -17 2 -20 -3z"/>
<path d="M5905 1930 c-4 -6 3 -10 14 -10 25 0 27 6 6 13 -8 4 -17 2 -20 -3z"/>
<path d="M6697 1929 c7 -7 15 -10 18 -7 3 3 -2 9 -12 12 -14 6 -15 5 -6 -5z"/>
<path d="M408 1923 c12 -2 32 -2 45 0 12 2 2 4 -23 4 -25 0 -35 -2 -22 -4z"/>
<path d="M528 1923 c12 -2 32 -2 45 0 12 2 2 4 -23 4 -25 0 -35 -2 -22 -4z"/>
<path d="M658 1923 c6 -2 18 -2 25 0 6 3 1 5 -13 5 -14 0 -19 -2 -12 -5z"/>
<path d="M1028 1923 c7 -3 16 -2 19 1 4 3 -2 6 -13 5 -11 0 -14 -3 -6 -6z"/>
<path d="M1618 1923 c6 -2 18 -2 25 0 6 3 1 5 -13 5 -14 0 -19 -2 -12 -5z"/>
<path d="M2338 1923 c7 -3 16 -2 19 1 4 3 -2 6 -13 5 -11 0 -14 -3 -6 -6z"/>
<path d="M2698 1923 c6 -2 18 -2 25 0 6 3 1 5 -13 5 -14 0 -19 -2 -12 -5z"/>
<path d="M3308 1923 c7 -3 16 -2 19 1 4 3 -2 6 -13 5 -11 0 -14 -3 -6 -6z"/>
<path d="M3658 1923 c6 -2 18 -2 25 0 6 3 1 5 -13 5 -14 0 -19 -2 -12 -5z"/>
<path d="M4008 1923 c12 -2 32 -2 45 0 12 2 2 4 -23 4 -25 0 -35 -2 -22 -4z"/>
<path d="M4268 1923 c7 -3 16 -2 19 1 4 3 -2 6 -13 5 -11 0 -14 -3 -6 -6z"/>
<path d="M4848 1923 c12 -2 32 -2 45 0 12 2 2 4 -23 4 -25 0 -35 -2 -22 -4z"/>
<path d="M4968 1923 c12 -2 32 -2 45 0 12 2 2 4 -23 4 -25 0 -35 -2 -22 -4z"/>
<path d="M5128 1923 c6 -2 18 -2 25 0 6 3 1 5 -13 5 -14 0 -19 -2 -12 -5z"/>
<path d="M5218 1923 c6 -2 18 -2 25 0 6 3 1 5 -13 5 -14 0 -19 -2 -12 -5z"/>
<path d="M5448 1923 c12 -2 32 -2 45 0 12 2 2 4 -23 4 -25 0 -35 -2 -22 -4z"/>
<path d="M5808 1923 c12 -2 32 -2 45 0 12 2 2 4 -23 4 -25 0 -35 -2 -22 -4z"/>
<path d="M5968 1923 c6 -2 18 -2 25 0 6 3 1 5 -13 5 -14 0 -19 -2 -12 -5z"/>
<path d="M6538 1923 c7 -3 16 -2 19 1 4 3 -2 6 -13 5 -11 0 -14 -3 -6 -6z"/>
<path d="M6658 1923 c7 -3 16 -2 19 1 4 3 -2 6 -13 5 -11 0 -14 -3 -6 -6z"/>
<path d="M6768 1923 c12 -2 32 -2 45 0 12 2 2 4 -23 4 -25 0 -35 -2 -22 -4z"/>
<path d="M6898 1923 c6 -2 18 -2 25 0 6 3 1 5 -13 5 -14 0 -19 -2 -12 -5z"/>
<path d="M1762 1805 c-16 -35 -14 -85 4 -115 10 -16 13 -18 8 -5 -14 38 -16
93 -4 115 6 12 10 24 7 26 -2 2 -9 -7 -15 -21z"/>
<path d="M1878 1823 c7 -3 16 -2 19 1 4 3 -2 6 -13 5 -11 0 -14 -3 -6 -6z"/>
<path d="M2319 1813 c-12 -16 -12 -17 1 -7 8 6 22 14 30 17 13 5 12 6 -1 6 -9
1 -23 -7 -30 -16z"/>
<path d="M2690 1826 c0 -2 11 -6 25 -8 13 -3 22 -1 19 3 -5 9 -44 13 -44 5z"/>
<path d="M2808 1823 c7 -3 16 -2 19 1 4 3 -2 6 -13 5 -11 0 -14 -3 -6 -6z"/>
<path d="M2926 1815 c5 -11 8 -40 8 -65 0 -25 -3 -54 -8 -65 -4 -12 -1 -10 8
5 8 14 15 41 15 60 0 19 -7 46 -15 60 -9 15 -12 17 -8 5z"/>
<path d="M3522 1793 c1 -37 1 -37 5 -6 3 26 9 33 31 36 24 4 24 4 -5 6 -32 1
-33 0 -31 -36z"/>
<path d="M3880 1804 c0 -14 4 -23 10 -19 6 3 10 15 10 26 0 10 -4 19 -10 19
-5 0 -10 -12 -10 -26z"/>
<path d="M3920 1811 c0 -11 5 -23 10 -26 6 -4 10 5 10 19 0 14 -4 26 -10 26
-5 0 -10 -9 -10 -19z"/>
<path d="M4105 1765 c0 -58 2 -65 20 -65 15 0 17 2 7 9 -8 4 -13 21 -12 37 3
49 0 84 -7 84 -5 0 -8 -29 -8 -65z"/>
<path d="M4488 1823 c7 -3 16 -2 19 1 4 3 -2 6 -13 5 -11 0 -14 -3 -6 -6z"/>
<path d="M4656 1768 c1 -34 5 -63 10 -65 5 -2 7 26 6 62 -5 83 -17 85 -16 3z"/>
<path d="M4825 1765 c0 -36 4 -64 9 -62 8 3 10 20 7 102 -1 14 -4 25 -8 25 -5
0 -8 -29 -8 -65z"/>
<path d="M5248 1823 c7 -3 16 -2 19 1 4 3 -2 6 -13 5 -11 0 -14 -3 -6 -6z"/>
<path d="M5320 1804 c0 -14 4 -23 10 -19 6 3 10 15 10 26 0 10 -4 19 -10 19
-5 0 -10 -12 -10 -26z"/>
<path d="M5360 1805 c0 -14 5 -25 10 -25 6 0 10 11 10 25 0 14 -4 25 -10 25
-5 0 -10 -11 -10 -25z"/>
<path d="M4000 1805 c-16 -19 3 -45 32 -45 10 0 23 -10 28 -22 l9 -23 0 22 c1
17 -7 24 -31 31 -17 4 -33 13 -36 20 -6 18 28 27 49 13 15 -9 19 -8 19 2 0 18
-55 20 -70 2z"/>
<path d="M5210 1805 c-7 -9 -11 -17 -9 -20 3 -2 10 5 17 15 14 24 10 26 -8 5z"/>
<path d="M1109 1790 c-17 -11 11 -17 46 -10 l30 6 -32 5 c-18 3 -38 2 -44 -1z"/>
<path d="M528 1783 c6 -2 18 -2 25 0 6 3 1 5 -13 5 -14 0 -19 -2 -12 -5z"/>
<path d="M639 1773 c-13 -15 -12 -15 9 -2 18 11 26 11 42 1 16 -10 20 -10 20
1 0 19 -55 20 -71 0z"/>
<path d="M766 1781 c-3 -5 3 -7 14 -4 11 3 27 0 35 -7 12 -10 15 -10 15 2 0
16 -55 24 -64 9z"/>
<path d="M909 1781 c14 -4 27 -13 29 -20 3 -10 -6 -12 -37 -9 -24 2 -41 -1
-41 -7 0 -6 18 -9 45 -7 45 4 56 17 33 40 -7 7 -21 12 -32 11 -18 -1 -18 -2 3
-8z"/>
<path d="M998 1783 c6 -2 12 -20 12 -38 0 -18 -6 -36 -12 -38 -7 -3 5 -5 27
-5 22 0 30 3 18 5 -16 3 -23 11 -23 27 0 29 24 50 47 42 15 -6 16 -5 5 6 -10
10 -16 10 -32 0 -12 -7 -20 -8 -20 -2 0 5 -8 10 -17 9 -11 0 -13 -3 -5 -6z"/>
<path d="M1360 1780 c-11 -8 -8 -9 13 -4 16 4 33 1 42 -6 12 -10 15 -10 15 2
0 17 -48 22 -70 8z"/>
<path d="M1468 1755 c2 -19 6 -35 8 -35 2 0 4 16 4 35 0 19 -4 35 -8 35 -4 0
-6 -16 -4 -35z"/>
<path d="M1578 1782 c7 -2 9 -9 5 -15 -5 -9 -3 -9 8 -1 8 6 28 10 44 10 27 -1
30 -4 33 -38 2 -21 7 -38 12 -38 4 0 7 8 5 18 -15 74 -11 69 -67 69 -28 -1
-46 -3 -40 -5z"/>
<path d="M2716 1781 c-19 -7 -19 -8 3 -14 31 -8 25 -48 -9 -59 -25 -7 -25 -7
-1 -5 30 2 47 28 36 53 -4 11 -7 22 -7 27 1 4 1 7 0 6 -2 0 -12 -4 -22 -8z"/>
<path d="M4140 1786 c0 -2 9 -6 20 -9 11 -3 18 -1 14 4 -5 9 -34 13 -34 5z"/>
<path d="M4258 1783 c6 -2 18 -2 25 0 6 3 1 5 -13 5 -14 0 -19 -2 -12 -5z"/>
<path d="M4348 1755 c2 -19 6 -35 8 -35 2 0 4 16 4 35 0 19 -4 35 -8 35 -4 0
-6 -16 -4 -35z"/>
<path d="M4618 1783 c7 -3 16 -2 19 1 4 3 -2 6 -13 5 -11 0 -14 -3 -6 -6z"/>
<path d="M4868 1783 c7 -3 16 -2 19 1 4 3 -2 6 -13 5 -11 0 -14 -3 -6 -6z"/>
<path d="M4989 1781 c14 -4 27 -13 29 -20 3 -10 -6 -12 -37 -9 -24 2 -41 -1
-41 -7 0 -6 18 -9 45 -7 45 4 56 17 33 40 -7 7 -21 12 -32 11 -18 -1 -18 -2 3
-8z"/>
<path d="M572 1768 c-1 -12 -10 -18 -26 -18 -14 0 -27 -4 -30 -8 -3 -5 9 -6
26 -4 23 4 29 1 26 -9 -3 -8 -17 -14 -31 -14 -14 1 -24 -3 -21 -7 2 -3 23 -6
45 -6 23 0 37 3 31 7 -6 3 -12 22 -15 41 -2 19 -5 27 -5 18z"/>
<path d="M2342 1747 c-18 -18 -32 -36 -32 -40 0 -4 19 -6 43 -5 l42 1 -39 4
-39 4 34 35 c18 19 31 34 28 34 -3 0 -19 -15 -37 -33z"/>
<path d="M3163 1773 c15 -2 39 -2 55 0 15 2 2 4 -28 4 -30 0 -43 -2 -27 -4z"/>
<path d="M3283 1773 c15 -2 39 -2 55 0 15 2 2 4 -28 4 -30 0 -43 -2 -27 -4z"/>
<path d="M3548 1773 c7 -3 16 -2 19 1 4 3 -2 6 -13 5 -11 0 -14 -3 -6 -6z"/>
<path d="M5210 1765 c-6 -8 -10 -20 -7 -27 3 -8 6 -6 6 5 1 10 11 22 24 27 15
6 17 9 6 9 -9 1 -22 -6 -29 -14z"/>
<path d="M658 1753 c6 -2 18 -2 25 0 6 3 1 5 -13 5 -14 0 -19 -2 -12 -5z"/>
<path d="M778 1753 c6 -2 18 -2 25 0 6 3 1 5 -13 5 -14 0 -19 -2 -12 -5z"/>
<path d="M1378 1753 c6 -2 18 -2 25 0 6 3 1 5 -13 5 -14 0 -19 -2 -12 -5z"/>
<path d="M3581 1742 c-1 -29 -27 -39 -55 -22 -19 12 -20 12 -7 -3 27 -33 78
-10 68 30 -4 14 -5 13 -6 -5z"/>
<path d="M4581 1744 c0 -11 3 -14 6 -6 3 7 2 16 -1 19 -3 4 -6 -2 -5 -13z"/>
<path d="M4911 1744 c0 -11 3 -14 6 -6 3 7 2 16 -1 19 -3 4 -6 -2 -5 -13z"/>
<path d="M3163 1743 c15 -2 39 -2 55 0 15 2 2 4 -28 4 -30 0 -43 -2 -27 -4z"/>
<path d="M3283 1743 c15 -2 39 -2 55 0 15 2 2 4 -28 4 -30 0 -43 -2 -27 -4z"/>
<path d="M630 1718 c0 -9 12 -14 33 -15 18 -1 23 1 12 4 -11 3 -26 10 -32 15
-9 8 -13 6 -13 -4z"/>
<path d="M750 1718 c0 -9 12 -14 33 -15 18 -1 23 1 12 4 -11 3 -26 10 -32 15
-9 8 -13 6 -13 -4z"/>
<path d="M1350 1718 c0 -9 12 -14 33 -15 18 -1 23 1 12 4 -11 3 -26 10 -32 15
-9 8 -13 6 -13 -4z"/>
<path d="M2086 1704 c-10 -38 0 -41 19 -5 13 26 13 31 1 31 -7 0 -17 -12 -20
-26z"/>
<path d="M2446 1704 c-10 -38 0 -41 19 -5 13 26 13 31 1 31 -7 0 -17 -12 -20
-26z"/>
<path d="M3646 1704 c-10 -38 0 -41 19 -5 13 26 13 31 1 31 -7 0 -17 -12 -20
-26z"/>
<path d="M3991 1714 c0 -11 3 -14 6 -6 3 7 2 16 -1 19 -3 4 -6 -2 -5 -13z"/>
<path d="M4295 1721 c-6 -5 -19 -11 -30 -14 -19 -4 -19 -5 1 -6 12 0 27 6 34
14 14 16 10 20 -5 6z"/>
<path d="M1137 1708 c2 -5 13 -8 23 -8 10 0 21 3 23 8 3 4 -8 7 -23 7 -15 0
-26 -3 -23 -7z"/>
<path d="M1537 1709 c7 -7 15 -10 18 -7 3 3 -2 9 -12 12 -14 6 -15 5 -6 -5z"/>
<path d="M4417 1709 c7 -7 15 -10 18 -7 3 3 -2 9 -12 12 -14 6 -15 5 -6 -5z"/>
<path d="M5218 1708 c5 -5 16 -8 23 -6 8 3 3 7 -10 11 -17 4 -21 3 -13 -5z"/>
<path d="M898 1703 c6 -2 18 -2 25 0 6 3 1 5 -13 5 -14 0 -19 -2 -12 -5z"/>
<path d="M1498 1703 c7 -3 16 -2 19 1 4 3 -2 6 -13 5 -11 0 -14 -3 -6 -6z"/>
<path d="M1578 1703 c6 -2 18 -2 25 0 6 3 1 5 -13 5 -14 0 -19 -2 -12 -5z"/>
<path d="M1968 1703 c12 -2 32 -2 45 0 12 2 2 4 -23 4 -25 0 -35 -2 -22 -4z"/>
<path d="M4018 1703 c6 -2 18 -2 25 0 6 3 1 5 -13 5 -14 0 -19 -2 -12 -5z"/>
<path d="M4168 1703 c6 -2 18 -2 25 0 6 3 1 5 -13 5 -14 0 -19 -2 -12 -5z"/>
<path d="M4378 1703 c7 -3 16 -2 19 1 4 3 -2 6 -13 5 -11 0 -14 -3 -6 -6z"/>
<path d="M4488 1703 c12 -2 32 -2 45 0 12 2 2 4 -23 4 -25 0 -35 -2 -22 -4z"/>
<path d="M4618 1703 c7 -3 16 -2 19 1 4 3 -2 6 -13 5 -11 0 -14 -3 -6 -6z"/>
<path d="M4868 1703 c7 -3 16 -2 19 1 4 3 -2 6 -13 5 -11 0 -14 -3 -6 -6z"/>
<path d="M4978 1703 c6 -2 18 -2 25 0 6 3 1 5 -13 5 -14 0 -19 -2 -12 -5z"/>
<path d="M1878 1673 c7 -3 16 -2 19 1 4 3 -2 6 -13 5 -11 0 -14 -3 -6 -6z"/>
<path d="M2808 1673 c7 -3 16 -2 19 1 4 3 -2 6 -13 5 -11 0 -14 -3 -6 -6z"/>
<path d="M2065 1545 c0 -58 2 -65 20 -65 15 0 17 2 7 9 -8 4 -13 21 -12 37 3
49 0 84 -7 84 -5 0 -8 -29 -8 -65z"/>
<path d="M2448 1603 c7 -3 16 -2 19 1 4 3 -2 6 -13 5 -11 0 -14 -3 -6 -6z"/>
<path d="M2616 1548 c1 -34 5 -63 10 -65 5 -2 7 26 6 62 -5 83 -17 85 -16 3z"/>
<path d="M2785 1545 c0 -36 4 -64 9 -62 8 3 10 20 7 102 -1 14 -4 25 -8 25 -5
0 -8 -29 -8 -65z"/>
<path d="M3208 1603 c7 -3 16 -2 19 1 4 3 -2 6 -13 5 -11 0 -14 -3 -6 -6z"/>
<path d="M39 1591 c11 -7 11 -15 1 -47 -7 -22 -17 -45 -23 -51 -7 -10 -3 -13
14 -12 13 0 19 3 12 5 -7 3 -9 12 -6 20 6 17 63 19 63 2 0 -6 2 -9 5 -6 3 3 1
16 -4 29 -5 13 -10 18 -10 12 -1 -7 -10 -13 -21 -13 -21 0 -24 12 -11 45 8 19
8 19 20 0 11 -18 12 -18 7 -2 -3 10 -6 21 -6 23 0 2 -12 4 -27 4 -20 0 -24 -3
-14 -9z"/>
<path d="M1135 1593 c22 -3 43 -10 47 -16 5 -8 8 -6 8 6 0 14 -8 17 -47 15
-48 -1 -48 -1 -8 -5z"/>
<path d="M1960 1585 c-16 -19 3 -45 32 -45 10 0 23 -10 28 -22 l9 -23 0 22 c1
17 -7 24 -31 31 -17 4 -33 13 -36 20 -6 18 28 27 49 13 15 -9 19 -8 19 2 0 18
-55 20 -70 2z"/>
<path d="M3170 1585 c-7 -9 -11 -17 -9 -20 3 -2 10 5 17 15 14 24 10 26 -8 5z"/>
<path d="M629 1570 c-17 -11 11 -17 46 -10 l30 6 -32 5 c-18 3 -38 2 -44 -1z"/>
<path d="M166 1561 c-3 -5 3 -7 14 -4 11 3 27 0 35 -7 12 -10 15 -10 15 2 0
16 -55 24 -64 9z"/>
<path d="M286 1561 c-3 -5 3 -7 14 -4 11 3 27 0 35 -7 12 -10 15 -10 15 2 0
16 -55 24 -64 9z"/>
<path d="M429 1561 c14 -4 27 -13 29 -20 3 -10 -6 -12 -37 -9 -24 2 -41 -1
-41 -7 0 -6 18 -9 45 -7 45 4 56 17 33 40 -7 7 -21 12 -32 11 -18 -1 -18 -2 3
-8z"/>
<path d="M518 1563 c6 -2 12 -20 12 -38 0 -18 -6 -36 -12 -38 -7 -3 5 -5 27
-5 22 0 30 3 18 5 -16 3 -23 11 -23 27 0 29 24 50 47 42 15 -6 16 -5 5 6 -10
10 -16 10 -32 0 -12 -7 -20 -8 -20 -2 0 5 -8 10 -17 9 -11 0 -13 -3 -5 -6z"/>
<path d="M768 1563 c7 -3 16 -2 19 1 4 3 -2 6 -13 5 -11 0 -14 -3 -6 -6z"/>
<path d="M898 1563 c6 -2 18 -2 25 0 6 3 1 5 -13 5 -14 0 -19 -2 -12 -5z"/>
<path d="M994 1554 c8 -8 15 -9 23 -2 7 6 20 8 28 4 9 -3 14 -2 11 3 -3 5 -21
9 -40 8 -25 -1 -31 -4 -22 -13z"/>
<path d="M1150 1560 c0 -5 -10 -11 -22 -11 -21 -1 -21 -2 -3 -6 11 -3 23 -10
27 -17 4 -6 8 1 8 17 0 15 -2 27 -5 27 -3 0 -5 -4 -5 -10z"/>
<path d="M1238 1563 c6 -2 12 -20 12 -38 0 -18 -6 -36 -12 -38 -7 -3 5 -5 27
-5 22 0 30 3 18 5 -16 3 -23 11 -23 27 0 29 24 50 47 42 15 -6 16 -5 5 6 -10
10 -16 10 -32 0 -12 -7 -20 -8 -20 -2 0 5 -8 10 -17 9 -11 0 -13 -3 -5 -6z"/>
<path d="M1358 1563 c6 -2 12 -20 12 -38 0 -18 -6 -36 -12 -38 -7 -3 5 -5 27
-5 22 0 30 3 18 5 -16 3 -23 11 -23 27 0 29 24 50 47 42 15 -6 16 -5 5 6 -10
10 -16 10 -32 0 -12 -7 -20 -8 -20 -2 0 5 -8 10 -17 9 -11 0 -13 -3 -5 -6z"/>
<path d="M1498 1563 c6 -2 18 -2 25 0 6 3 1 5 -13 5 -14 0 -19 -2 -12 -5z"/>
<path d="M1598 1563 c6 -2 12 -20 12 -38 0 -18 -6 -36 -12 -38 -7 -3 5 -5 27
-5 22 0 30 3 18 5 -16 3 -23 11 -23 27 0 29 24 50 47 42 15 -6 16 -5 5 6 -10
10 -16 10 -32 0 -12 -7 -20 -8 -20 -2 0 5 -8 10 -17 9 -11 0 -13 -3 -5 -6z"/>
<path d="M1737 1564 c-8 -8 1 -24 14 -24 5 0 9 7 9 15 0 15 -12 20 -23 9z"/>
<path d="M2100 1566 c0 -2 9 -6 20 -9 11 -3 18 -1 14 4 -5 9 -34 13 -34 5z"/>
<path d="M2218 1563 c6 -2 18 -2 25 0 6 3 1 5 -13 5 -14 0 -19 -2 -12 -5z"/>
<path d="M2308 1535 c2 -19 6 -35 8 -35 2 0 4 16 4 35 0 19 -4 35 -8 35 -4 0
-6 -16 -4 -35z"/>
<path d="M2578 1563 c7 -3 16 -2 19 1 4 3 -2 6 -13 5 -11 0 -14 -3 -6 -6z"/>
<path d="M2828 1563 c7 -3 16 -2 19 1 4 3 -2 6 -13 5 -11 0 -14 -3 -6 -6z"/>
<path d="M2949 1561 c14 -4 27 -13 29 -20 3 -10 -6 -12 -37 -9 -24 2 -41 -1
-41 -7 0 -6 18 -9 45 -7 45 4 56 17 33 40 -7 7 -21 12 -32 11 -18 -1 -18 -2 3
-8z"/>
<path d="M3168 1547 c-11 -9 -14 -18 -7 -28 7 -11 9 -11 9 4 0 10 10 22 23 27
12 5 15 9 7 9 -8 0 -23 -5 -32 -12z"/>
<path d="M178 1533 c6 -2 18 -2 25 0 6 3 1 5 -13 5 -14 0 -19 -2 -12 -5z"/>
<path d="M298 1533 c6 -2 18 -2 25 0 6 3 1 5 -13 5 -14 0 -19 -2 -12 -5z"/>
<path d="M2541 1524 c0 -11 3 -14 6 -6 3 7 2 16 -1 19 -3 4 -6 -2 -5 -13z"/>
<path d="M2871 1524 c0 -11 3 -14 6 -6 3 7 2 16 -1 19 -3 4 -6 -2 -5 -13z"/>
<path d="M217 1505 c-7 -18 -38 -20 -55 -3 -9 9 -12 9 -12 -3 0 -20 54 -23 70
-4 7 9 11 18 8 21 -3 3 -8 -2 -11 -11z"/>
<path d="M270 1498 c0 -9 12 -14 33 -15 18 -1 23 1 12 4 -11 3 -26 10 -32 15
-9 8 -13 6 -13 -4z"/>
<path d="M649 1498 c14 -19 46 -24 55 -9 4 5 -3 7 -14 4 -11 -3 -28 1 -38 8
-15 13 -16 12 -3 -3z"/>
<path d="M935 1501 c-6 -5 -19 -11 -30 -14 -19 -4 -19 -5 1 -6 12 0 27 6 34
14 14 16 10 20 -5 6z"/>
<path d="M1535 1501 c-6 -5 -19 -11 -30 -14 -19 -4 -19 -5 1 -6 12 0 27 6 34
14 14 16 10 20 -5 6z"/>
<path d="M1737 1504 c-8 -8 1 -24 14 -24 5 0 9 7 9 15 0 15 -12 20 -23 9z"/>
<path d="M1951 1494 c0 -11 3 -14 6 -6 3 7 2 16 -1 19 -3 4 -6 -2 -5 -13z"/>
<path d="M2255 1501 c-6 -5 -19 -11 -30 -14 -19 -4 -19 -5 1 -6 12 0 27 6 34
14 14 16 10 20 -5 6z"/>
<path d="M2377 1489 c7 -7 15 -10 18 -7 3 3 -2 9 -12 12 -14 6 -15 5 -6 -5z"/>
<path d="M3178 1488 c5 -5 16 -8 23 -6 8 3 3 7 -10 11 -17 4 -21 3 -13 -5z"/>
<path d="M98 1483 c6 -2 18 -2 25 0 6 3 1 5 -13 5 -14 0 -19 -2 -12 -5z"/>
<path d="M418 1483 c6 -2 18 -2 25 0 6 3 1 5 -13 5 -14 0 -19 -2 -12 -5z"/>
<path d="M768 1483 c12 -2 32 -2 45 0 12 2 2 4 -23 4 -25 0 -35 -2 -22 -4z"/>
<path d="M988 1483 c6 -2 18 -2 25 0 6 3 1 5 -13 5 -14 0 -19 -2 -12 -5z"/>
<path d="M1048 1483 c6 -2 18 -2 25 0 6 3 1 5 -13 5 -14 0 -19 -2 -12 -5z"/>
<path d="M1123 1483 c15 -2 37 -2 50 0 12 2 0 4 -28 4 -27 0 -38 -2 -22 -4z"/>
<path d="M1978 1483 c6 -2 18 -2 25 0 6 3 1 5 -13 5 -14 0 -19 -2 -12 -5z"/>
<path d="M2128 1483 c6 -2 18 -2 25 0 6 3 1 5 -13 5 -14 0 -19 -2 -12 -5z"/>
<path d="M2338 1483 c7 -3 16 -2 19 1 4 3 -2 6 -13 5 -11 0 -14 -3 -6 -6z"/>
<path d="M2448 1483 c12 -2 32 -2 45 0 12 2 2 4 -23 4 -25 0 -35 -2 -22 -4z"/>
<path d="M2578 1483 c7 -3 16 -2 19 1 4 3 -2 6 -13 5 -11 0 -14 -3 -6 -6z"/>
<path d="M2828 1483 c7 -3 16 -2 19 1 4 3 -2 6 -13 5 -11 0 -14 -3 -6 -6z"/>
<path d="M2938 1483 c6 -2 18 -2 25 0 6 3 1 5 -13 5 -14 0 -19 -2 -12 -5z"/>
<path d="M3904 1099 c-19 -39 -33 -73 -30 -76 4 -5 51 83 69 130 16 41 -6 11
-39 -54z"/>
<path d="M4624 1099 c-19 -39 -33 -73 -30 -76 5 -5 48 76 66 123 18 47 0 23
-36 -47z"/>
<path d="M5017 1147 c4 -21 2 -23 -26 -19 -25 3 -32 0 -42 -21 -19 -43 2 -66
59 -65 26 0 41 3 35 5 -9 3 -13 25 -13 64 0 32 -4 59 -9 59 -4 0 -6 -11 -4
-23z m-13 -33 c24 -9 20 -51 -4 -59 -37 -12 -64 27 -38 53 14 14 20 14 42 6z"/>
<path d="M5104 1099 c-19 -39 -33 -73 -30 -76 2 -3 19 26 37 63 17 38 33 72
36 77 2 4 2 7 -1 7 -3 0 -22 -32 -42 -71z"/>
<path d="M5555 1105 c0 -48 4 -65 14 -65 8 0 11 7 8 20 -3 11 -2 20 3 20 12 0
31 -26 23 -33 -3 -4 4 -7 16 -7 21 0 21 1 -5 23 l-27 23 28 22 c26 21 27 22 6
22 -12 0 -20 -4 -16 -9 3 -5 0 -13 -6 -17 -15 -9 -28 13 -24 42 1 13 -3 24 -9
24 -7 0 -11 -24 -11 -65z"/>
<path d="M6064 1099 c-19 -39 -33 -73 -30 -76 5 -5 48 76 66 123 18 47 0 23
-36 -47z"/>
<path d="M6668 1111 c3 -55 2 -60 -20 -64 -12 -2 -3 -4 22 -4 25 -1 37 1 28 4
-15 4 -18 16 -18 64 0 32 -3 59 -7 59 -5 0 -6 -27 -5 -59z"/>
<path d="M2545 1100 c0 -53 2 -60 20 -60 11 0 15 4 10 8 -16 11 -12 36 7 40 9
2 24 -8 34 -22 9 -14 21 -26 28 -26 7 0 7 3 1 8 -29 21 -36 40 -24 60 18 28
-3 52 -45 52 l-31 0 0 -60z m73 27 c4 -19 -20 -32 -42 -24 -9 4 -12 14 -9 27
7 26 46 24 51 -3z"/>
<path d="M2665 1100 l0 -60 48 0 c38 0 47 3 46 18 0 10 -3 12 -6 5 -7 -19 -60
-16 -67 4 -9 23 12 43 24 23 7 -11 10 -8 9 15 0 17 -3 24 -6 18 -8 -20 -29
-15 -29 7 0 15 7 20 27 20 15 0 30 -6 32 -12 3 -8 6 -6 6 5 1 14 -7 17 -41 17
l-43 0 0 -60z"/>
<path d="M2800 1145 c-16 -19 1 -42 33 -47 27 -4 35 -36 11 -45 -9 -3 -25 -1
-35 6 -15 9 -19 8 -19 -2 0 -15 21 -19 58 -11 15 3 22 11 22 29 0 19 -7 26
-32 33 -17 4 -33 13 -36 20 -6 18 28 27 49 13 15 -9 19 -8 19 2 0 18 -55 20
-70 2z"/>
<path d="M2901 1138 c1 -17 2 -19 6 -5 2 9 11 17 19 17 18 0 20 -96 2 -103 -7
-3 3 -5 22 -5 19 0 27 2 18 5 -14 3 -18 15 -18 54 0 50 13 63 34 33 10 -13 12
-13 12 5 0 18 -6 21 -48 21 -43 0 -48 -2 -47 -22z"/>
<path d="M3039 1152 c11 -8 11 -16 1 -48 -7 -22 -17 -45 -23 -51 -7 -10 -3
-13 14 -12 13 0 19 3 12 5 -22 10 -1 34 29 34 25 0 29 -3 25 -20 -4 -15 0 -20
14 -20 16 0 17 3 9 18 -6 9 -16 35 -24 57 -11 33 -18 40 -42 43 -20 2 -25 0
-15 -6z m41 -21 c0 -5 3 -16 6 -25 4 -12 0 -16 -15 -16 -22 0 -25 8 -15 34 7
17 24 22 24 7z"/>
<path d="M3145 1100 c0 -58 1 -60 25 -59 16 1 19 3 8 6 -22 6 -19 43 4 43 10
0 25 -11 34 -25 9 -14 21 -25 28 -25 7 0 7 3 1 8 -29 21 -36 40 -24 60 18 28
-3 52 -45 52 l-31 0 0 -60z m70 25 c0 -22 -31 -33 -47 -17 -17 17 -1 44 24 40
15 -2 23 -10 23 -23z"/>
<path d="M3261 1138 c1 -17 3 -18 6 -5 2 9 11 17 19 17 18 0 20 -96 2 -103 -7
-3 3 -5 22 -5 19 0 27 2 18 5 -14 3 -18 15 -18 54 0 52 13 63 36 32 12 -17 13
-17 10 2 -2 16 -12 21 -49 23 -44 3 -47 1 -46 -20z"/>
<path d="M3637 1142 c-10 -10 -17 -30 -17 -44 0 -47 62 -77 90 -44 10 13 7 13
-18 4 -24 -9 -34 -9 -46 1 -31 26 -13 84 29 94 19 4 19 5 -1 6 -11 0 -28 -7
-37 -17z"/>
<path d="M3705 1151 c-3 -5 -1 -12 5 -16 5 -3 10 1 10 9 0 18 -6 21 -15 7z"/>
<path d="M3990 1109 c3 -34 11 -56 23 -63 29 -18 52 4 55 55 2 24 9 47 15 51
7 4 -1 8 -18 8 -20 0 -26 -3 -17 -9 9 -5 12 -24 10 -52 -3 -39 -6 -44 -28 -44
-22 0 -25 5 -28 44 -2 28 1 47 10 52 9 6 7 9 -7 9 -19 0 -20 -5 -15 -51z"/>
<path d="M5188 1153 c7 -3 12 -24 12 -53 0 -29 -5 -50 -12 -53 -7 -3 5 -5 27
-5 22 0 30 3 18 5 -20 4 -23 11 -23 53 0 42 3 49 23 53 12 2 4 5 -18 5 -22 0
-34 -2 -27 -5z"/>
<path d="M5680 1145 c0 -8 -6 -15 -12 -15 -10 0 -10 -2 -1 -8 6 -4 13 -20 15
-36 4 -38 28 -53 60 -39 21 10 21 11 -11 9 -31 -1 -34 1 -37 31 -2 28 1 32 24
36 l27 4 -29 2 c-21 1 -27 5 -22 16 3 8 1 15 -4 15 -6 0 -10 -7 -10 -15z"/>
<path d="M6161 1148 c0 -10 -7 -18 -13 -18 -10 0 -10 -2 -1 -8 6 -4 13 -20 15
-36 4 -38 28 -53 60 -39 21 10 21 11 -12 9 -35 -1 -36 -1 -31 48 0 8 13 17 29
19 26 4 25 4 -5 6 -21 0 -33 7 -36 19 -4 16 -5 16 -6 0z"/>
<path d="M6520 1145 c0 -8 -6 -15 -12 -15 -10 0 -10 -2 -1 -8 6 -4 13 -20 15
-36 4 -38 28 -53 60 -39 21 10 21 11 -11 9 -31 -1 -34 1 -35 32 -1 28 2 32 24
33 l25 1 -25 7 c-14 4 -24 13 -22 19 1 7 -2 12 -8 12 -5 0 -10 -7 -10 -15z"/>
<path d="M5265 1100 c0 -26 3 -46 8 -43 9 5 9 64 -1 80 -4 6 -7 -10 -7 -37z"/>
<path d="M3417 1124 c-8 -8 1 -24 14 -24 5 0 9 7 9 15 0 15 -12 20 -23 9z"/>
<path d="M3775 1121 c-7 -12 12 -24 25 -16 11 7 4 25 -10 25 -5 0 -11 -4 -15
-9z"/>
<path d="M4123 1123 c-22 -8 -14 -22 19 -31 17 -4 33 -13 36 -20 6 -18 -28
-27 -49 -13 -15 9 -19 8 -19 -2 0 -15 49 -21 70 -7 20 13 2 44 -29 48 -11 2
-21 8 -21 13 0 13 34 11 48 -3 9 -9 12 -9 12 3 0 15 -42 23 -67 12z"/>
<path d="M4231 1111 c-15 -27 -14 -37 5 -55 16 -17 59 -22 68 -8 3 5 -7 7 -23
4 -17 -2 -32 2 -40 12 -12 14 -8 16 34 16 47 0 47 0 33 23 -20 30 -63 35 -77
8z m67 -8 c2 -9 -8 -13 -33 -13 -33 0 -36 2 -25 15 15 18 51 16 58 -2z"/>
<path d="M4358 1123 c6 -2 12 -20 12 -38 0 -18 -6 -36 -12 -38 -7 -3 5 -5 27
-5 22 0 30 3 18 5 -16 3 -23 11 -23 27 0 29 24 50 47 42 15 -6 16 -5 5 6 -10
10 -16 10 -32 0 -12 -7 -20 -8 -20 -2 0 5 -8 10 -17 9 -11 0 -13 -3 -5 -6z"/>
<path d="M4483 1123 c-22 -8 -14 -22 19 -31 17 -4 33 -13 36 -20 6 -18 -28
-27 -49 -13 -15 9 -19 8 -19 -2 0 -15 49 -21 70 -7 20 13 2 44 -29 48 -11 2
-21 8 -21 13 0 13 34 11 48 -3 9 -9 12 -9 12 3 0 15 -42 23 -67 12z"/>
<path d="M4724 1085 c12 -25 24 -45 28 -45 4 0 15 17 23 37 9 21 21 41 28 45
7 5 0 8 -18 8 -17 0 -25 -4 -18 -8 8 -5 8 -14 -1 -37 l-13 -30 -12 23 c-7 13
-10 30 -7 38 3 9 -1 14 -13 14 -17 0 -16 -3 3 -45z"/>
<path d="M4843 1123 c-22 -8 -14 -22 19 -31 17 -4 33 -13 36 -20 6 -18 -28
-27 -49 -13 -15 9 -19 8 -19 -2 0 -15 49 -21 70 -7 20 13 2 44 -29 48 -11 2
-21 8 -21 13 0 13 34 11 48 -3 9 -9 12 -9 12 3 0 15 -42 23 -67 12z"/>
<path d="M5310 1111 c-14 -27 -13 -37 6 -55 16 -17 59 -22 68 -8 3 5 -7 7 -23
4 -17 -2 -32 2 -40 12 -12 14 -9 16 28 16 27 0 41 4 41 13 0 37 -62 51 -80 18z
m68 -8 c2 -9 -8 -13 -33 -13 -33 0 -36 2 -25 15 15 18 51 16 58 -2z"/>
<path d="M5443 1123 c-22 -8 -14 -22 19 -31 17 -4 33 -13 36 -20 6 -18 -28
-27 -49 -13 -15 9 -19 8 -19 -2 0 -15 49 -21 70 -7 20 13 2 44 -29 48 -11 2
-21 8 -21 13 0 13 34 11 48 -3 9 -9 12 -9 12 3 0 15 -42 23 -67 12z"/>
<path d="M5796 1114 c-9 -8 -16 -22 -16 -29 0 -19 28 -45 49 -45 19 0 51 30
51 47 0 15 -34 43 -53 43 -8 0 -23 -7 -31 -16z m65 -10 c9 -11 10 -20 2 -32
-15 -24 -44 -27 -59 -7 -28 38 27 75 57 39z"/>
<path d="M5898 1123 c7 -3 12 -24 12 -58 0 -33 -5 -55 -12 -58 -7 -3 1 -5 17
-5 17 0 24 2 18 5 -7 2 -13 13 -13 24 0 16 5 18 25 13 31 -8 55 10 55 41 0 32
-19 44 -70 43 -25 0 -39 -3 -32 -5z m87 -38 c0 -25 -4 -30 -24 -30 -32 0 -49
28 -31 50 7 9 23 15 34 13 16 -2 21 -10 21 -33z"/>
<path d="M6270 1111 c-14 -27 -13 -37 6 -55 16 -17 59 -22 68 -8 3 5 -7 7 -23
4 -17 -2 -32 2 -40 12 -12 14 -9 16 28 16 27 0 41 4 41 13 0 37 -62 51 -80 18z
m68 -8 c2 -9 -8 -13 -33 -13 -33 0 -36 2 -25 15 15 18 51 16 58 -2z"/>
<path d="M6403 1123 c-22 -8 -14 -22 19 -31 17 -4 33 -13 36 -20 6 -18 -28
-27 -49 -13 -15 9 -19 8 -19 -2 0 -15 49 -21 70 -7 20 13 2 44 -29 48 -11 2
-21 8 -21 13 0 13 34 11 48 -3 9 -9 12 -9 12 3 0 15 -42 23 -67 12z"/>
<path d="M6858 1123 c7 -3 12 -24 12 -58 0 -33 -5 -55 -12 -58 -7 -3 3 -5 22
-5 19 0 27 2 18 5 -10 2 -18 13 -18 24 0 16 5 18 25 13 31 -8 55 10 55 41 0
32 -19 44 -70 43 -25 0 -39 -3 -32 -5z m87 -38 c0 -33 -25 -45 -50 -25 -18 15
-19 46 -2 54 31 13 52 1 52 -29z"/>
<path d="M7006 1086 c27 -48 24 -73 -9 -79 -15 -3 -11 -5 11 -6 19 0 31 3 27
9 -3 5 1 23 10 40 31 60 36 80 19 80 -8 0 -13 -4 -9 -9 3 -5 0 -21 -6 -35
l-12 -26 -17 27 c-12 20 -14 30 -6 35 6 5 2 8 -11 8 l-22 0 25 -44z"/>
<path d="M43 1113 c15 -2 39 -2 55 0 15 2 2 4 -28 4 -30 0 -43 -2 -27 -4z"/>
<path d="M163 1113 c15 -2 39 -2 55 0 15 2 2 4 -28 4 -30 0 -43 -2 -27 -4z"/>
<path d="M283 1113 c15 -2 39 -2 55 0 15 2 2 4 -28 4 -30 0 -43 -2 -27 -4z"/>
<path d="M403 1113 c15 -2 39 -2 55 0 15 2 2 4 -28 4 -30 0 -43 -2 -27 -4z"/>
<path d="M523 1113 c15 -2 39 -2 55 0 15 2 2 4 -28 4 -30 0 -43 -2 -27 -4z"/>
<path d="M643 1113 c15 -2 39 -2 55 0 15 2 2 4 -28 4 -30 0 -43 -2 -27 -4z"/>
<path d="M763 1113 c15 -2 39 -2 55 0 15 2 2 4 -28 4 -30 0 -43 -2 -27 -4z"/>
<path d="M883 1113 c15 -2 39 -2 55 0 15 2 2 4 -28 4 -30 0 -43 -2 -27 -4z"/>
<path d="M1003 1113 c15 -2 39 -2 55 0 15 2 2 4 -28 4 -30 0 -43 -2 -27 -4z"/>
<path d="M1123 1113 c15 -2 39 -2 55 0 15 2 2 4 -28 4 -30 0 -43 -2 -27 -4z"/>
<path d="M1243 1113 c15 -2 39 -2 55 0 15 2 2 4 -28 4 -30 0 -43 -2 -27 -4z"/>
<path d="M1363 1113 c15 -2 39 -2 55 0 15 2 2 4 -28 4 -30 0 -43 -2 -27 -4z"/>
<path d="M1483 1113 c15 -2 39 -2 55 0 15 2 2 4 -28 4 -30 0 -43 -2 -27 -4z"/>
<path d="M1603 1113 c15 -2 39 -2 55 0 15 2 2 4 -28 4 -30 0 -43 -2 -27 -4z"/>
<path d="M1723 1113 c15 -2 39 -2 55 0 15 2 2 4 -28 4 -30 0 -43 -2 -27 -4z"/>
<path d="M1843 1113 c15 -2 39 -2 55 0 15 2 2 4 -28 4 -30 0 -43 -2 -27 -4z"/>
<path d="M1963 1113 c15 -2 39 -2 55 0 15 2 2 4 -28 4 -30 0 -43 -2 -27 -4z"/>
<path d="M2083 1113 c15 -2 39 -2 55 0 15 2 2 4 -28 4 -30 0 -43 -2 -27 -4z"/>
<path d="M2203 1113 c15 -2 39 -2 55 0 15 2 2 4 -28 4 -30 0 -43 -2 -27 -4z"/>
<path d="M2323 1113 c15 -2 39 -2 55 0 15 2 2 4 -28 4 -30 0 -43 -2 -27 -4z"/>
<path d="M7243 1113 c15 -2 39 -2 55 0 15 2 2 4 -28 4 -30 0 -43 -2 -27 -4z"/>
<path d="M7363 1113 c15 -2 39 -2 55 0 15 2 2 4 -28 4 -30 0 -43 -2 -27 -4z"/>
<path d="M7483 1113 c15 -2 39 -2 55 0 15 2 2 4 -28 4 -30 0 -43 -2 -27 -4z"/>
<path d="M7603 1113 c15 -2 39 -2 55 0 15 2 2 4 -28 4 -30 0 -43 -2 -27 -4z"/>
<path d="M7723 1113 c15 -2 39 -2 55 0 15 2 2 4 -28 4 -30 0 -43 -2 -27 -4z"/>
<path d="M7843 1113 c15 -2 39 -2 55 0 15 2 2 4 -28 4 -30 0 -43 -2 -27 -4z"/>
<path d="M7963 1113 c15 -2 39 -2 55 0 15 2 2 4 -28 4 -30 0 -43 -2 -27 -4z"/>
<path d="M8073 1113 c9 -2 25 -2 35 0 9 3 1 5 -18 5 -19 0 -27 -2 -17 -5z"/>
<path d="M43 1083 c15 -2 39 -2 55 0 15 2 2 4 -28 4 -30 0 -43 -2 -27 -4z"/>
<path d="M163 1083 c15 -2 39 -2 55 0 15 2 2 4 -28 4 -30 0 -43 -2 -27 -4z"/>
<path d="M283 1083 c15 -2 39 -2 55 0 15 2 2 4 -28 4 -30 0 -43 -2 -27 -4z"/>
<path d="M403 1083 c15 -2 39 -2 55 0 15 2 2 4 -28 4 -30 0 -43 -2 -27 -4z"/>
<path d="M523 1083 c15 -2 39 -2 55 0 15 2 2 4 -28 4 -30 0 -43 -2 -27 -4z"/>
<path d="M643 1083 c15 -2 39 -2 55 0 15 2 2 4 -28 4 -30 0 -43 -2 -27 -4z"/>
<path d="M763 1083 c15 -2 39 -2 55 0 15 2 2 4 -28 4 -30 0 -43 -2 -27 -4z"/>
<path d="M883 1083 c15 -2 39 -2 55 0 15 2 2 4 -28 4 -30 0 -43 -2 -27 -4z"/>
<path d="M1003 1083 c15 -2 39 -2 55 0 15 2 2 4 -28 4 -30 0 -43 -2 -27 -4z"/>
<path d="M1123 1083 c15 -2 39 -2 55 0 15 2 2 4 -28 4 -30 0 -43 -2 -27 -4z"/>
<path d="M1243 1083 c15 -2 39 -2 55 0 15 2 2 4 -28 4 -30 0 -43 -2 -27 -4z"/>
<path d="M1363 1083 c15 -2 39 -2 55 0 15 2 2 4 -28 4 -30 0 -43 -2 -27 -4z"/>
<path d="M1483 1083 c15 -2 39 -2 55 0 15 2 2 4 -28 4 -30 0 -43 -2 -27 -4z"/>
<path d="M1603 1083 c15 -2 39 -2 55 0 15 2 2 4 -28 4 -30 0 -43 -2 -27 -4z"/>
<path d="M1723 1083 c15 -2 39 -2 55 0 15 2 2 4 -28 4 -30 0 -43 -2 -27 -4z"/>
<path d="M1843 1083 c15 -2 39 -2 55 0 15 2 2 4 -28 4 -30 0 -43 -2 -27 -4z"/>
<path d="M1963 1083 c15 -2 39 -2 55 0 15 2 2 4 -28 4 -30 0 -43 -2 -27 -4z"/>
<path d="M2083 1083 c15 -2 39 -2 55 0 15 2 2 4 -28 4 -30 0 -43 -2 -27 -4z"/>
<path d="M2203 1083 c15 -2 39 -2 55 0 15 2 2 4 -28 4 -30 0 -43 -2 -27 -4z"/>
<path d="M2323 1083 c15 -2 39 -2 55 0 15 2 2 4 -28 4 -30 0 -43 -2 -27 -4z"/>
<path d="M7243 1083 c15 -2 39 -2 55 0 15 2 2 4 -28 4 -30 0 -43 -2 -27 -4z"/>
<path d="M7363 1083 c15 -2 39 -2 55 0 15 2 2 4 -28 4 -30 0 -43 -2 -27 -4z"/>
<path d="M7483 1083 c15 -2 39 -2 55 0 15 2 2 4 -28 4 -30 0 -43 -2 -27 -4z"/>
<path d="M7603 1083 c15 -2 39 -2 55 0 15 2 2 4 -28 4 -30 0 -43 -2 -27 -4z"/>
<path d="M7723 1083 c15 -2 39 -2 55 0 15 2 2 4 -28 4 -30 0 -43 -2 -27 -4z"/>
<path d="M7843 1083 c15 -2 39 -2 55 0 15 2 2 4 -28 4 -30 0 -43 -2 -27 -4z"/>
<path d="M7963 1083 c15 -2 39 -2 55 0 15 2 2 4 -28 4 -30 0 -43 -2 -27 -4z"/>
<path d="M8073 1083 c9 -2 25 -2 35 0 9 3 1 5 -18 5 -19 0 -27 -2 -17 -5z"/>
<path d="M3417 1064 c-8 -8 1 -24 14 -24 5 0 9 7 9 15 0 15 -12 20 -23 9z"/>
<path d="M3777 1064 c-8 -8 1 -24 14 -24 5 0 9 7 9 15 0 15 -12 20 -23 9z"/>
<path d="M6775 1061 c-7 -12 12 -24 25 -16 11 7 4 25 -10 25 -5 0 -11 -4 -15
-9z"/>
<path d="M625 885 c0 -36 4 -64 9 -62 8 3 10 20 7 102 -1 14 -4 25 -8 25 -5 0
-8 -29 -8 -65z"/>
<path d="M1282 925 c-16 -35 -14 -85 4 -115 10 -16 13 -18 8 -5 -14 38 -16 93
-4 115 6 12 10 24 7 26 -2 2 -9 -7 -15 -21z"/>
<path d="M3048 943 c7 -3 16 -2 19 1 4 3 -2 6 -13 5 -11 0 -14 -3 -6 -6z"/>
<path d="M3168 943 c7 -3 16 -2 19 1 4 3 -2 6 -13 5 -11 0 -14 -3 -6 -6z"/>
<path d="M3408 943 c7 -3 16 -2 19 1 4 3 -2 6 -13 5 -11 0 -14 -3 -6 -6z"/>
<path d="M3886 935 c5 -11 8 -40 8 -65 0 -25 -3 -54 -8 -65 -4 -12 -1 -10 8 5
8 14 15 41 15 60 0 19 -7 46 -15 60 -9 15 -12 17 -8 5z"/>
<path d="M21 918 c1 -17 2 -19 6 -5 2 9 11 17 19 17 18 0 20 -96 2 -103 -7 -3
3 -5 22 -5 19 0 27 2 18 5 -14 3 -18 15 -18 55 0 45 2 50 20 45 11 -3 20 -1
20 4 0 5 -20 9 -45 9 -40 0 -45 -2 -44 -22z"/>
<path d="M3753 915 c-16 -18 2 -24 42 -14 30 7 30 7 3 8 -14 0 -28 5 -30 10
-1 5 -8 3 -15 -4z"/>
<path d="M1708 908 c-8 -4 4 -8 30 -8 23 0 42 2 42 4 0 8 -60 12 -72 4z"/>
<path d="M2549 910 c-17 -11 11 -17 46 -10 l30 6 -32 5 c-18 3 -38 2 -44 -1z"/>
<path d="M158 903 c6 -2 12 -20 12 -38 0 -18 -6 -36 -12 -38 -7 -3 5 -5 27 -5
22 0 30 3 18 5 -16 3 -23 11 -23 27 0 29 24 50 47 42 15 -6 16 -5 5 6 -10 10
-16 10 -32 0 -12 -7 -20 -8 -20 -2 0 5 -8 10 -17 9 -11 0 -13 -3 -5 -6z"/>
<path d="M288 903 c6 -2 18 -2 25 0 6 3 1 5 -13 5 -14 0 -19 -2 -12 -5z"/>
<path d="M402 898 c-7 -7 -12 -16 -12 -22 0 -5 6 -3 13 6 6 9 21 18 32 21 20
5 20 5 0 6 -12 0 -26 -4 -33 -11z"/>
<path d="M549 901 c14 -4 27 -13 29 -20 3 -10 -6 -12 -37 -9 -24 2 -41 -1 -41
-7 0 -6 18 -9 45 -7 45 4 56 17 33 40 -7 7 -21 12 -32 11 -18 -1 -18 -2 3 -8z"/>
<path d="M668 903 c7 -3 16 -2 19 1 4 3 -2 6 -13 5 -11 0 -14 -3 -6 -6z"/>
<path d="M768 903 c6 -2 18 -2 25 0 6 3 1 5 -13 5 -14 0 -19 -2 -12 -5z"/>
<path d="M882 898 c-7 -7 -12 -16 -12 -22 0 -5 6 -3 13 6 6 9 21 18 32 21 20
5 20 5 0 6 -12 0 -26 -4 -33 -11z"/>
<path d="M1045 900 c3 -5 12 -7 20 -3 21 7 19 13 -6 13 -11 0 -18 -4 -14 -10z"/>
<path d="M1338 902 c7 -2 9 -9 5 -15 -5 -9 -3 -9 8 -1 8 6 28 10 44 10 27 -1
30 -4 33 -38 2 -21 7 -38 12 -38 4 0 7 8 5 18 -15 74 -11 69 -67 69 -28 -1
-46 -3 -40 -5z"/>
<path d="M1498 903 c6 -2 18 -2 25 0 6 3 1 5 -13 5 -14 0 -19 -2 -12 -5z"/>
<path d="M1606 901 c-3 -5 3 -7 14 -4 11 3 27 0 35 -7 12 -10 15 -10 15 2 0
16 -55 24 -64 9z"/>
<path d="M1958 903 c6 -2 12 -20 12 -38 0 -18 -6 -36 -12 -38 -7 -3 5 -5 27
-5 22 0 30 3 18 5 -16 3 -23 11 -23 27 0 29 24 50 47 42 15 -6 16 -5 5 6 -10
10 -16 10 -32 0 -12 -7 -20 -8 -20 -2 0 5 -8 10 -17 9 -11 0 -13 -3 -5 -6z"/>
<path d="M2109 901 c14 -4 27 -13 29 -20 3 -10 -6 -12 -37 -9 -24 2 -41 -1
-41 -7 0 -6 18 -9 45 -7 45 4 56 17 33 40 -7 7 -21 12 -32 11 -18 -1 -18 -2 3
-8z"/>
<path d="M2202 898 c-7 -7 -12 -16 -12 -22 0 -5 6 -3 13 6 6 9 21 18 32 21 20
5 20 5 0 6 -12 0 -26 -4 -33 -11z"/>
<path d="M2349 901 c14 -4 27 -13 29 -20 3 -10 -6 -12 -37 -9 -24 2 -41 -1
-41 -7 0 -6 18 -9 45 -7 45 4 56 17 33 40 -7 7 -21 12 -32 11 -18 -1 -18 -2 3
-8z"/>
<path d="M2432 893 c8 -10 14 -10 24 -2 8 6 21 9 29 5 9 -3 14 -2 11 3 -3 5
-22 9 -41 8 -27 -1 -32 -4 -23 -14z"/>
<path d="M2802 898 c-7 -7 -12 -16 -12 -22 0 -5 6 -3 13 6 6 9 21 18 32 21 20
5 20 5 0 6 -12 0 -26 -4 -33 -11z"/>
<path d="M2928 903 c6 -2 18 -2 25 0 6 3 1 5 -13 5 -14 0 -19 -2 -12 -5z"/>
<path d="M3528 903 c6 -2 18 -2 25 0 6 3 1 5 -13 5 -14 0 -19 -2 -12 -5z"/>
<path d="M3646 901 c-3 -5 3 -7 14 -4 11 3 27 0 35 -7 12 -10 15 -10 15 2 0
16 -55 24 -64 9z"/>
<path d="M4017 904 c-8 -8 1 -24 14 -24 5 0 9 7 9 15 0 15 -12 20 -23 9z"/>
<path d="M332 888 c-1 -12 -10 -18 -26 -18 -14 0 -27 -4 -30 -8 -3 -5 9 -6 26
-4 23 4 29 1 26 -9 -3 -8 -17 -14 -31 -14 -14 1 -24 -3 -21 -7 2 -3 23 -6 45
-6 23 0 37 3 31 7 -6 3 -12 22 -15 41 -2 19 -5 27 -5 18z"/>
<path d="M812 888 c-1 -12 -10 -18 -26 -18 -14 0 -27 -4 -30 -8 -3 -5 9 -6 26
-4 23 4 29 1 26 -9 -3 -8 -17 -14 -31 -14 -14 1 -24 -3 -21 -7 2 -3 23 -6 45
-6 23 0 37 3 31 7 -6 3 -12 22 -15 41 -2 19 -5 27 -5 18z"/>
<path d="M2972 888 c-1 -12 -10 -18 -26 -18 -14 0 -27 -4 -30 -8 -3 -5 9 -6
26 -4 23 4 29 1 26 -9 -3 -8 -17 -14 -31 -14 -14 1 -24 -3 -21 -7 2 -3 23 -6
45 -6 23 0 37 3 31 7 -6 3 -12 22 -15 41 -2 19 -5 27 -5 18z"/>
<path d="M3572 888 c-1 -12 -10 -18 -26 -18 -14 0 -27 -4 -30 -8 -3 -5 9 -6
26 -4 23 4 29 1 26 -9 -3 -8 -17 -14 -31 -14 -14 1 -24 -3 -21 -7 2 -3 23 -6
45 -6 23 0 37 3 31 7 -6 3 -12 22 -15 41 -2 19 -5 27 -5 18z"/>
<path d="M1463 874 c-3 -8 -2 -19 3 -24 5 -5 9 1 9 16 0 28 -3 30 -12 8z"/>
<path d="M1008 869 c-10 -7 -9 -9 4 -9 9 0 24 -9 32 -21 8 -12 18 -20 23 -18
4 2 -4 16 -19 30 -17 17 -31 23 -40 18z"/>
<path d="M1618 873 c6 -2 18 -2 25 0 6 3 1 5 -13 5 -14 0 -19 -2 -12 -5z"/>
<path d="M3658 873 c6 -2 18 -2 25 0 6 3 1 5 -13 5 -14 0 -19 -2 -12 -5z"/>
<path d="M390 854 c0 -18 27 -36 47 -31 14 4 14 5 -4 6 -12 0 -27 9 -32 19 -6
9 -11 12 -11 6z"/>
<path d="M870 854 c0 -18 27 -36 47 -31 14 4 14 5 -4 6 -12 0 -27 9 -32 19 -6
9 -11 12 -11 6z"/>
<path d="M2190 854 c0 -18 27 -36 47 -31 14 4 14 5 -4 6 -12 0 -27 9 -32 19
-6 9 -11 12 -11 6z"/>
<path d="M2790 854 c0 -18 27 -36 47 -31 14 4 14 5 -4 6 -12 0 -27 9 -32 19
-6 9 -11 12 -11 6z"/>
<path d="M996 835 c-3 -8 -1 -15 4 -15 6 0 10 7 10 15 0 8 -2 15 -4 15 -2 0
-6 -7 -10 -15z"/>
<path d="M1535 841 c-6 -5 -19 -11 -30 -14 -19 -4 -19 -5 1 -6 12 0 27 6 34
14 14 16 10 20 -5 6z"/>
<path d="M1590 838 c0 -9 12 -14 33 -15 18 -1 23 1 12 4 -11 3 -26 10 -32 15
-9 8 -13 6 -13 -4z"/>
<path d="M3630 838 c0 -9 12 -14 33 -15 18 -1 23 1 12 4 -11 3 -26 10 -32 15
-9 8 -13 6 -13 -4z"/>
<path d="M4017 844 c-8 -8 1 -24 14 -24 5 0 9 7 9 15 0 15 -12 20 -23 9z"/>
<path d="M1335 830 c-4 -6 3 -10 14 -10 25 0 27 6 6 13 -8 4 -17 2 -20 -3z"/>
<path d="M1737 828 c2 -5 13 -8 23 -8 10 0 21 3 23 8 3 4 -8 7 -23 7 -15 0
-26 -3 -23 -7z"/>
<path d="M2577 828 c2 -5 13 -8 23 -8 10 0 21 3 23 8 3 4 -8 7 -23 7 -15 0
-26 -3 -23 -7z"/>
<path d="M3777 828 c2 -5 13 -8 23 -8 10 0 21 3 23 8 3 4 -8 7 -23 7 -15 0
-26 -3 -23 -7z"/>
<path d="M538 823 c6 -2 18 -2 25 0 6 3 1 5 -13 5 -14 0 -19 -2 -12 -5z"/>
<path d="M668 823 c7 -3 16 -2 19 1 4 3 -2 6 -13 5 -11 0 -14 -3 -6 -6z"/>
<path d="M2098 823 c6 -2 18 -2 25 0 6 3 1 5 -13 5 -14 0 -19 -2 -12 -5z"/>
<path d="M2338 823 c6 -2 18 -2 25 0 6 3 1 5 -13 5 -14 0 -19 -2 -12 -5z"/>
<path d="M2428 823 c6 -2 18 -2 25 0 6 3 1 5 -13 5 -14 0 -19 -2 -12 -5z"/>
<path d="M2488 823 c6 -2 18 -2 25 0 6 3 1 5 -13 5 -14 0 -19 -2 -12 -5z"/>
<path d="M3048 823 c12 -2 32 -2 45 0 12 2 2 4 -23 4 -25 0 -35 -2 -22 -4z"/>
<path d="M3168 823 c12 -2 32 -2 45 0 12 2 2 4 -23 4 -25 0 -35 -2 -22 -4z"/>
<path d="M3408 823 c12 -2 32 -2 45 0 12 2 2 4 -23 4 -25 0 -35 -2 -22 -4z"/>
<path d="M528 723 c7 -3 16 -2 19 1 4 3 -2 6 -13 5 -11 0 -14 -3 -6 -6z"/>
<path d="M880 704 c0 -14 4 -23 10 -19 6 3 10 15 10 26 0 10 -4 19 -10 19 -5
0 -10 -12 -10 -26z"/>
<path d="M920 705 c0 -14 5 -25 10 -25 6 0 10 11 10 25 0 14 -4 25 -10 25 -5
0 -10 -11 -10 -25z"/>
<path d="M1274 679 c-14 -28 -24 -53 -22 -55 2 -2 16 21 31 51 15 30 25 55 22
55 -3 0 -16 -23 -31 -51z"/>
<path d="M1994 679 c-14 -28 -24 -53 -22 -55 2 -2 16 21 31 51 15 30 25 55 22
55 -3 0 -16 -23 -31 -51z"/>
<path d="M2376 668 c1 -34 5 -63 10 -65 5 -2 7 26 6 62 -5 83 -17 85 -16 3z"/>
<path d="M2474 679 c-14 -28 -24 -53 -22 -55 2 -2 16 21 31 51 15 30 25 55 22
55 -3 0 -16 -23 -31 -51z"/>
<path d="M3434 679 c-14 -28 -24 -53 -22 -55 2 -2 16 21 31 51 15 30 25 55 22
55 -3 0 -16 -23 -31 -51z"/>
<path d="M4480 704 c0 -14 4 -23 10 -19 6 3 10 15 10 26 0 10 -4 19 -10 19 -5
0 -10 -12 -10 -26z"/>
<path d="M4520 705 c0 -14 5 -25 10 -25 6 0 10 11 10 25 0 14 -4 25 -10 25 -5
0 -10 -11 -10 -25z"/>
<path d="M4848 723 c7 -3 16 -2 19 1 4 3 -2 6 -13 5 -11 0 -14 -3 -6 -6z"/>
<path d="M6576 668 c1 -34 5 -63 10 -65 5 -2 7 26 6 62 -5 83 -17 85 -16 3z"/>
<path d="M6768 723 c7 -3 16 -2 19 1 4 3 -2 6 -13 5 -11 0 -14 -3 -6 -6z"/>
<path d="M275 660 c0 -58 1 -60 25 -59 17 1 19 3 8 6 -22 5 -25 53 -4 53 8 0
17 -6 19 -12 3 -7 5 1 5 17 0 17 -2 24 -5 18 -8 -21 -33 -15 -33 7 0 15 7 20
29 20 16 0 32 -6 34 -12 3 -8 6 -6 6 5 1 14 -7 17 -41 17 l-43 0 0 -60z"/>
<path d="M999 703 c-12 -16 -12 -17 1 -7 8 7 24 14 35 17 19 4 19 5 -1 6 -12
0 -28 -7 -35 -16z"/>
<path d="M1350 669 c9 -95 71 -95 80 0 5 46 4 51 -15 51 -14 0 -16 -3 -7 -9 9
-5 12 -24 10 -52 -3 -39 -6 -44 -28 -44 -22 0 -25 5 -28 44 -2 28 1 47 10 52
9 6 7 9 -7 9 -19 0 -20 -5 -15 -51z"/>
<path d="M2548 713 c7 -3 12 -24 12 -53 0 -29 -5 -50 -12 -53 -7 -3 5 -5 27
-5 22 0 30 3 18 5 -20 4 -23 11 -23 53 0 42 3 49 23 53 12 2 4 5 -18 5 -22 0
-34 -2 -27 -5z"/>
<path d="M3028 688 c-8 -4 4 -8 30 -8 23 0 42 2 42 4 0 8 -60 12 -72 4z"/>
<path d="M3509 690 c-17 -11 11 -17 46 -10 l30 6 -32 5 c-18 3 -38 2 -44 -1z"/>
<path d="M408 683 c7 -3 16 -2 19 1 4 3 -2 6 -13 5 -11 0 -14 -3 -6 -6z"/>
<path d="M669 681 c14 -4 27 -13 29 -20 3 -10 -6 -12 -37 -9 -24 2 -41 -1 -41
-7 0 -6 18 -9 45 -7 45 4 56 17 33 40 -7 7 -21 12 -32 11 -18 -1 -18 -2 3 -8z"/>
<path d="M1137 684 c-8 -8 1 -24 14 -24 5 0 9 7 9 15 0 15 -12 20 -23 9z"/>
<path d="M1486 681 c-3 -5 3 -7 14 -4 11 3 27 0 35 -7 12 -10 15 -10 15 2 0
16 -55 24 -64 9z"/>
<path d="M1629 681 c14 -4 27 -13 29 -20 3 -10 -6 -12 -37 -9 -24 2 -41 -1
-41 -7 0 -6 18 -9 45 -7 45 4 56 17 33 40 -7 7 -21 12 -32 11 -18 -1 -18 -2 3
-8z"/>
<path d="M1718 683 c6 -2 12 -20 12 -38 0 -18 -6 -36 -12 -38 -7 -3 5 -5 27
-5 22 0 30 3 18 5 -16 3 -23 11 -23 27 0 29 24 50 47 42 15 -6 16 -5 5 6 -10
10 -16 10 -32 0 -12 -7 -20 -8 -20 -2 0 5 -8 10 -17 9 -11 0 -13 -3 -5 -6z"/>
<path d="M1847 683 c-3 -5 10 -8 29 -9 19 0 34 2 34 6 0 9 -58 11 -63 3z"/>
<path d="M2071 673 c21 -28 23 -29 16 -11 -3 9 -1 19 6 22 7 2 1 5 -12 5 -21
1 -22 -1 -10 -16z"/>
<path d="M2120 686 c0 -9 30 -14 35 -6 4 6 -3 10 -14 10 -12 0 -21 -2 -21 -4z"/>
<path d="M2206 681 c-3 -5 3 -7 14 -4 11 3 27 0 35 -7 12 -10 15 -10 15 2 0
16 -55 24 -64 9z"/>
<path d="M2338 683 c7 -3 16 -2 19 1 4 3 -2 6 -13 5 -11 0 -14 -3 -6 -6z"/>
<path d="M2632 660 c0 -19 2 -27 5 -17 2 9 2 25 0 35 -3 9 -5 1 -5 -18z"/>
<path d="M2709 681 c14 -4 27 -13 29 -20 3 -10 -6 -12 -37 -9 -24 2 -41 -1
-41 -7 0 -6 18 -9 45 -7 45 4 56 17 33 40 -7 7 -21 12 -32 11 -18 -1 -18 -2 3
-8z"/>
<path d="M2806 681 c-3 -5 3 -7 14 -4 11 3 27 0 35 -7 12 -10 15 -10 15 2 0
16 -55 24 -64 9z"/>
<path d="M2965 680 c3 -5 12 -7 20 -3 21 7 19 13 -6 13 -11 0 -18 -4 -14 -10z"/>
<path d="M3178 683 c6 -2 18 -2 25 0 6 3 1 5 -13 5 -14 0 -19 -2 -12 -5z"/>
<path d="M3265 625 c0 -58 2 -65 20 -65 15 0 17 3 7 9 -9 5 -13 25 -11 61 2
30 -1 55 -6 57 -6 2 -10 -25 -10 -62z"/>
<path d="M3308 683 c7 -3 16 -2 19 1 4 3 -2 6 -13 5 -11 0 -14 -3 -6 -6z"/>
<path d="M3669 681 c14 -4 27 -13 29 -20 3 -10 -6 -12 -37 -9 -24 2 -41 -1
-41 -7 0 -6 18 -9 45 -7 45 4 56 17 33 40 -7 7 -21 12 -32 11 -18 -1 -18 -2 3
-8z"/>
<path d="M3766 681 c-3 -5 3 -7 14 -4 11 3 27 0 35 -7 12 -10 15 -10 15 2 0
16 -55 24 -64 9z"/>
<path d="M3878 683 c12 -2 32 -2 45 0 12 2 2 4 -23 4 -25 0 -35 -2 -22 -4z"/>
<path d="M4225 625 c0 -58 2 -65 20 -65 15 0 17 3 7 9 -9 5 -13 25 -11 61 2
30 -1 55 -6 57 -6 2 -10 -25 -10 -62z"/>
<path d="M4268 683 c7 -3 16 -2 19 1 4 3 -2 6 -13 5 -11 0 -14 -3 -6 -6z"/>
<path d="M4366 646 c27 -48 24 -73 -9 -79 -15 -3 -11 -5 11 -6 18 0 31 3 28 8
-4 5 -2 21 4 36 6 16 6 24 0 20 -11 -7 -42 49 -33 59 4 3 -1 6 -10 6 -13 0
-12 -7 9 -44z"/>
<path d="M4418 683 c7 -3 16 -2 19 1 4 3 -2 6 -13 5 -11 0 -14 -3 -6 -6z"/>
<path d="M4968 683 c7 -3 16 -2 19 1 4 3 -2 6 -13 5 -11 0 -14 -3 -6 -6z"/>
<path d="M5072 673 c8 -10 14 -10 24 -2 8 6 21 9 29 5 9 -3 14 -2 11 3 -3 5
-22 9 -41 8 -27 -1 -32 -4 -23 -14z"/>
<path d="M5229 681 c14 -4 27 -13 29 -20 3 -10 -6 -12 -37 -9 -24 2 -41 -1
-41 -7 0 -6 18 -9 45 -7 45 4 56 17 33 40 -7 7 -21 12 -32 11 -18 -1 -18 -2 3
-8z"/>
<path d="M5808 683 c7 -3 16 -2 19 1 4 3 -2 6 -13 5 -11 0 -14 -3 -6 -6z"/>
<path d="M5914 674 c8 -8 15 -9 23 -2 7 6 20 8 28 4 9 -3 14 -2 11 3 -3 5 -21
9 -40 8 -25 -1 -31 -4 -22 -13z"/>
<path d="M6168 672 l-27 -18 32 -18 c32 -18 32 -18 9 1 l-24 19 24 17 c32 22
20 21 -14 -1z"/>
<path d="M6258 682 c7 -2 9 -9 5 -15 -4 -7 0 -6 10 1 9 8 20 11 26 8 5 -3 20
-2 32 3 18 6 11 8 -31 8 -29 -1 -48 -3 -42 -5z"/>
<path d="M6418 683 c6 -2 18 -2 25 0 6 3 1 5 -13 5 -14 0 -19 -2 -12 -5z"/>
<path d="M6538 683 c7 -3 16 -2 19 1 4 3 -2 6 -13 5 -11 0 -14 -3 -6 -6z"/>
<path d="M6628 655 c2 -19 6 -35 8 -35 2 0 4 16 4 35 0 19 -4 35 -8 35 -4 0
-6 -16 -4 -35z"/>
<path d="M6909 681 c14 -4 27 -13 29 -20 3 -10 -6 -12 -37 -9 -24 2 -41 -1
-41 -7 0 -6 18 -9 45 -7 45 4 56 17 33 40 -7 7 -21 12 -32 11 -18 -1 -18 -2 3
-8z"/>
<path d="M7038 673 l24 -17 -24 -19 c-23 -19 -23 -19 9 -1 33 19 32 23 -12 45
-14 7 -13 4 3 -8z"/>
<path d="M982 660 c0 -14 2 -19 5 -12 2 6 2 18 0 25 -3 6 -5 1 -5 -13z"/>
<path d="M6350 635 c0 -19 4 -35 8 -35 4 0 6 16 4 35 -2 19 -6 35 -8 35 -2 0
-4 -16 -4 -35z"/>
<path d="M6385 659 c-4 -6 -5 -12 -2 -15 2 -3 7 2 10 11 7 17 1 20 -8 4z"/>
<path d="M1498 653 c6 -2 18 -2 25 0 6 3 1 5 -13 5 -14 0 -19 -2 -12 -5z"/>
<path d="M1858 653 c6 -2 18 -2 25 0 6 3 1 5 -13 5 -14 0 -19 -2 -12 -5z"/>
<path d="M2125 641 c-7 -22 -25 -29 -25 -9 0 6 -2 9 -5 6 -7 -7 5 -38 14 -38
10 0 33 51 27 57 -2 2 -7 -5 -11 -16z"/>
<path d="M2218 653 c6 -2 18 -2 25 0 6 3 1 5 -13 5 -14 0 -19 -2 -12 -5z"/>
<path d="M2301 644 c0 -11 3 -14 6 -6 3 7 2 16 -1 19 -3 4 -6 -2 -5 -13z"/>
<path d="M2818 653 c6 -2 18 -2 25 0 6 3 1 5 -13 5 -14 0 -19 -2 -12 -5z"/>
<path d="M2931 647 c-6 -6 -11 -16 -11 -21 0 -6 5 -4 10 4 9 13 13 12 30 -8
11 -13 23 -22 27 -20 5 1 -4 15 -19 29 -19 19 -30 23 -37 16z"/>
<path d="M3351 644 c0 -11 3 -14 6 -6 3 7 2 16 -1 19 -3 4 -6 -2 -5 -13z"/>
<path d="M3778 653 c6 -2 18 -2 25 0 6 3 1 5 -13 5 -14 0 -19 -2 -12 -5z"/>
<path d="M4311 644 c0 -11 3 -14 6 -6 3 7 2 16 -1 19 -3 4 -6 -2 -5 -13z"/>
<path d="M6501 644 c0 -11 3 -14 6 -6 3 7 2 16 -1 19 -3 4 -6 -2 -5 -13z"/>
<path d="M1897 625 c-7 -18 -38 -20 -55 -3 -9 9 -12 9 -12 -3 0 -20 54 -23 70
-4 7 9 11 18 8 21 -3 3 -8 -2 -11 -11z"/>
<path d="M2857 625 c-7 -18 -38 -20 -55 -3 -9 9 -12 9 -12 -3 0 -20 54 -23 70
-4 7 9 11 18 8 21 -3 3 -8 -2 -11 -11z"/>
<path d="M3817 625 c-7 -18 -38 -20 -55 -3 -9 9 -12 9 -12 -3 0 -20 54 -23 70
-4 7 9 11 18 8 21 -3 3 -8 -2 -11 -11z"/>
<path d="M1137 624 c-8 -8 1 -24 14 -24 5 0 9 7 9 15 0 15 -12 20 -23 9z"/>
<path d="M1470 618 c0 -9 12 -14 33 -15 18 -1 23 1 12 4 -11 3 -26 10 -32 15
-9 8 -13 6 -13 -4z"/>
<path d="M2190 618 c0 -9 12 -14 33 -15 18 -1 23 1 12 4 -11 3 -26 10 -32 15
-9 8 -13 6 -13 -4z"/>
<path d="M3049 618 c14 -19 46 -24 55 -9 4 5 -3 7 -14 4 -11 -3 -28 1 -38 8
-15 13 -16 12 -3 -3z"/>
<path d="M3215 621 c-6 -5 -19 -11 -30 -14 -19 -4 -19 -5 1 -6 12 0 27 6 34
14 14 16 10 20 -5 6z"/>
<path d="M3529 618 c14 -19 46 -24 55 -9 4 5 -3 7 -14 4 -11 -3 -28 1 -38 8
-15 13 -16 12 -3 -3z"/>
<path d="M4137 624 c-8 -8 1 -24 14 -24 5 0 9 7 9 15 0 15 -12 20 -23 9z"/>
<path d="M4606 604 c-10 -38 0 -41 19 -5 13 26 13 31 1 31 -7 0 -17 -12 -20
-26z"/>
<path d="M5566 604 c-10 -38 0 -41 19 -5 13 26 13 31 1 31 -7 0 -17 -12 -20
-26z"/>
<path d="M6455 621 c-6 -5 -19 -11 -30 -14 -19 -4 -19 -5 1 -6 12 0 27 6 34
14 14 16 10 20 -5 6z"/>
<path d="M3897 608 c2 -5 13 -8 23 -8 10 0 21 3 23 8 3 4 -8 7 -23 7 -15 0
-26 -3 -23 -7z"/>
<path d="M5905 610 c-4 -6 3 -10 14 -10 25 0 27 6 6 13 -8 4 -17 2 -20 -3z"/>
<path d="M6255 610 c-4 -6 3 -10 14 -10 25 0 27 6 6 13 -8 4 -17 2 -20 -3z"/>
<path d="M6697 609 c7 -7 15 -10 18 -7 3 3 -2 9 -12 12 -14 6 -15 5 -6 -5z"/>
<path d="M408 603 c12 -2 32 -2 45 0 12 2 2 4 -23 4 -25 0 -35 -2 -22 -4z"/>
<path d="M528 603 c12 -2 32 -2 45 0 12 2 2 4 -23 4 -25 0 -35 -2 -22 -4z"/>
<path d="M658 603 c6 -2 18 -2 25 0 6 3 1 5 -13 5 -14 0 -19 -2 -12 -5z"/>
<path d="M1028 603 c7 -3 16 -2 19 1 4 3 -2 6 -13 5 -11 0 -14 -3 -6 -6z"/>
<path d="M1618 603 c6 -2 18 -2 25 0 6 3 1 5 -13 5 -14 0 -19 -2 -12 -5z"/>
<path d="M2338 603 c7 -3 16 -2 19 1 4 3 -2 6 -13 5 -11 0 -14 -3 -6 -6z"/>
<path d="M2698 603 c6 -2 18 -2 25 0 6 3 1 5 -13 5 -14 0 -19 -2 -12 -5z"/>
<path d="M3308 603 c7 -3 16 -2 19 1 4 3 -2 6 -13 5 -11 0 -14 -3 -6 -6z"/>
<path d="M3658 603 c6 -2 18 -2 25 0 6 3 1 5 -13 5 -14 0 -19 -2 -12 -5z"/>
<path d="M4008 603 c12 -2 32 -2 45 0 12 2 2 4 -23 4 -25 0 -35 -2 -22 -4z"/>
<path d="M4268 603 c7 -3 16 -2 19 1 4 3 -2 6 -13 5 -11 0 -14 -3 -6 -6z"/>
<path d="M4848 603 c12 -2 32 -2 45 0 12 2 2 4 -23 4 -25 0 -35 -2 -22 -4z"/>
<path d="M4968 603 c12 -2 32 -2 45 0 12 2 2 4 -23 4 -25 0 -35 -2 -22 -4z"/>
<path d="M5068 603 c6 -2 18 -2 25 0 6 3 1 5 -13 5 -14 0 -19 -2 -12 -5z"/>
<path d="M5128 603 c6 -2 18 -2 25 0 6 3 1 5 -13 5 -14 0 -19 -2 -12 -5z"/>
<path d="M5218 603 c6 -2 18 -2 25 0 6 3 1 5 -13 5 -14 0 -19 -2 -12 -5z"/>
<path d="M5448 603 c12 -2 32 -2 45 0 12 2 2 4 -23 4 -25 0 -35 -2 -22 -4z"/>
<path d="M5808 603 c12 -2 32 -2 45 0 12 2 2 4 -23 4 -25 0 -35 -2 -22 -4z"/>
<path d="M5968 603 c6 -2 18 -2 25 0 6 3 1 5 -13 5 -14 0 -19 -2 -12 -5z"/>
<path d="M6538 603 c7 -3 16 -2 19 1 4 3 -2 6 -13 5 -11 0 -14 -3 -6 -6z"/>
<path d="M6658 603 c7 -3 16 -2 19 1 4 3 -2 6 -13 5 -11 0 -14 -3 -6 -6z"/>
<path d="M6768 603 c12 -2 32 -2 45 0 12 2 2 4 -23 4 -25 0 -35 -2 -22 -4z"/>
<path d="M6898 603 c6 -2 18 -2 25 0 6 3 1 5 -13 5 -14 0 -19 -2 -12 -5z"/>
<path d="M1762 485 c-16 -35 -14 -85 4 -115 10 -16 13 -18 8 -5 -14 38 -16 93
-4 115 6 12 10 24 7 26 -2 2 -9 -7 -15 -21z"/>
<path d="M1878 503 c7 -3 16 -2 19 1 4 3 -2 6 -13 5 -11 0 -14 -3 -6 -6z"/>
<path d="M2319 493 c-12 -16 -12 -17 1 -7 8 6 22 14 30 17 13 5 12 6 -1 6 -9
1 -23 -7 -30 -16z"/>
<path d="M2687 503 c-3 -5 8 -8 23 -8 15 0 26 3 23 8 -2 4 -13 7 -23 7 -10 0
-21 -3 -23 -7z"/>
<path d="M2808 503 c7 -3 16 -2 19 1 4 3 -2 6 -13 5 -11 0 -14 -3 -6 -6z"/>
<path d="M2926 495 c5 -11 8 -40 8 -65 0 -25 -3 -54 -8 -65 -4 -12 -1 -10 8 5
8 14 15 41 15 60 0 19 -7 46 -15 60 -9 15 -12 17 -8 5z"/>
<path d="M3522 473 c1 -37 1 -37 5 -6 3 26 9 33 31 36 24 4 24 4 -5 6 -32 1
-33 0 -31 -36z"/>
<path d="M1109 470 c-17 -11 11 -17 46 -10 l30 6 -32 5 c-18 3 -38 2 -44 -1z"/>
<path d="M528 463 c6 -2 18 -2 25 0 6 3 1 5 -13 5 -14 0 -19 -2 -12 -5z"/>
<path d="M646 461 c-3 -5 3 -7 14 -4 11 3 27 0 35 -7 12 -10 15 -10 15 2 0 16
-55 24 -64 9z"/>
<path d="M766 461 c-3 -5 3 -7 14 -4 11 3 27 0 35 -7 12 -10 15 -10 15 2 0 16
-55 24 -64 9z"/>
<path d="M909 461 c14 -4 27 -13 29 -20 3 -10 -6 -12 -37 -9 -24 2 -41 -1 -41
-7 0 -6 18 -9 45 -7 45 4 56 17 33 40 -7 7 -21 12 -32 11 -18 -1 -18 -2 3 -8z"/>
<path d="M998 463 c6 -2 12 -20 12 -38 0 -18 -6 -36 -12 -38 -7 -3 5 -5 27 -5
22 0 30 3 18 5 -16 3 -23 11 -23 27 0 29 24 50 47 42 15 -6 16 -5 5 6 -10 10
-16 10 -32 0 -12 -7 -20 -8 -20 -2 0 5 -8 10 -17 9 -11 0 -13 -3 -5 -6z"/>
<path d="M1366 461 c-3 -5 3 -7 14 -4 11 3 27 0 35 -7 12 -10 15 -10 15 2 0
16 -55 24 -64 9z"/>
<path d="M1468 435 c2 -19 6 -35 8 -35 2 0 4 16 4 35 0 19 -4 35 -8 35 -4 0
-6 -16 -4 -35z"/>
<path d="M1578 462 c7 -2 9 -9 5 -15 -4 -7 0 -6 10 1 9 8 20 11 26 8 5 -3 20
-2 32 3 18 6 11 8 -31 8 -29 -1 -48 -3 -42 -5z"/>
<path d="M2716 461 c-19 -7 -19 -8 3 -14 31 -8 25 -48 -9 -59 -25 -7 -25 -7
-1 -5 30 2 47 28 36 53 -4 11 -7 22 -7 27 1 4 1 7 0 6 -2 0 -12 -4 -22 -8z"/>
<path d="M572 448 c-1 -12 -10 -18 -26 -18 -14 0 -27 -4 -30 -8 -3 -5 9 -6 26
-4 23 4 29 1 26 -9 -3 -8 -17 -14 -31 -14 -14 1 -24 -3 -21 -7 2 -3 23 -6 45
-6 23 0 37 3 31 7 -6 3 -12 22 -15 41 -2 19 -5 27 -5 18z"/>
<path d="M2342 427 c-18 -18 -32 -36 -32 -40 0 -4 18 -7 40 -7 22 0 40 4 40 8
0 4 -17 6 -37 4 l-38 -4 34 36 c19 20 33 36 30 36 -3 0 -19 -15 -37 -33z"/>
<path d="M3163 453 c15 -2 39 -2 55 0 15 2 2 4 -28 4 -30 0 -43 -2 -27 -4z"/>
<path d="M3283 453 c15 -2 39 -2 55 0 15 2 2 4 -28 4 -30 0 -43 -2 -27 -4z"/>
<path d="M3548 453 c7 -3 16 -2 19 1 4 3 -2 6 -13 5 -11 0 -14 -3 -6 -6z"/>
<path d="M1670 415 c0 -19 4 -35 8 -35 4 0 6 16 4 35 -2 19 -6 35 -8 35 -2 0
-4 -16 -4 -35z"/>
<path d="M658 433 c6 -2 18 -2 25 0 6 3 1 5 -13 5 -14 0 -19 -2 -12 -5z"/>
<path d="M778 433 c6 -2 18 -2 25 0 6 3 1 5 -13 5 -14 0 -19 -2 -12 -5z"/>
<path d="M1378 433 c6 -2 18 -2 25 0 6 3 1 5 -13 5 -14 0 -19 -2 -12 -5z"/>
<path d="M3581 422 c-1 -29 -27 -39 -55 -22 -19 12 -20 12 -7 -3 27 -33 78
-10 68 30 -4 14 -5 13 -6 -5z"/>
<path d="M3163 423 c15 -2 39 -2 55 0 15 2 2 4 -28 4 -30 0 -43 -2 -27 -4z"/>
<path d="M3283 423 c15 -2 39 -2 55 0 15 2 2 4 -28 4 -30 0 -43 -2 -27 -4z"/>
<path d="M630 398 c0 -9 12 -14 33 -15 18 -1 23 1 12 4 -11 3 -26 10 -32 15
-9 8 -13 6 -13 -4z"/>
<path d="M750 398 c0 -9 12 -14 33 -15 18 -1 23 1 12 4 -11 3 -26 10 -32 15
-9 8 -13 6 -13 -4z"/>
<path d="M1350 398 c0 -9 12 -14 33 -15 18 -1 23 1 12 4 -11 3 -26 10 -32 15
-9 8 -13 6 -13 -4z"/>
<path d="M2086 384 c-10 -38 0 -41 19 -5 13 26 13 31 1 31 -7 0 -17 -12 -20
-26z"/>
<path d="M2447 383 c-7 -39 -1 -40 18 -4 13 26 13 31 1 31 -7 0 -16 -12 -19
-27z"/>
<path d="M1137 388 c2 -5 13 -8 23 -8 10 0 21 3 23 8 3 4 -8 7 -23 7 -15 0
-26 -3 -23 -7z"/>
<path d="M1537 389 c7 -7 15 -10 18 -7 3 3 -2 9 -12 12 -14 6 -15 5 -6 -5z"/>
<path d="M1575 390 c-4 -6 3 -10 14 -10 25 0 27 6 6 13 -8 4 -17 2 -20 -3z"/>
<path d="M898 383 c6 -2 18 -2 25 0 6 3 1 5 -13 5 -14 0 -19 -2 -12 -5z"/>
<path d="M1498 383 c7 -3 16 -2 19 1 4 3 -2 6 -13 5 -11 0 -14 -3 -6 -6z"/>
<path d="M1968 383 c12 -2 32 -2 45 0 12 2 2 4 -23 4 -25 0 -35 -2 -22 -4z"/>
<path d="M1878 353 c7 -3 16 -2 19 1 4 3 -2 6 -13 5 -11 0 -14 -3 -6 -6z"/>
<path d="M2808 353 c7 -3 16 -2 19 1 4 3 -2 6 -13 5 -11 0 -14 -3 -6 -6z"/>
<path d="M39 271 c11 -7 11 -15 1 -47 -7 -22 -17 -45 -23 -51 -7 -10 -3 -13
14 -12 13 0 19 3 12 5 -22 10 -1 34 29 34 25 0 29 -3 25 -20 -4 -15 0 -20 16
-20 13 0 17 3 11 8 -6 4 -18 27 -28 52 -9 25 -14 33 -11 18 5 -24 2 -28 -16
-28 -18 0 -20 4 -14 27 3 15 12 31 18 35 7 4 -1 8 -18 8 -21 0 -26 -3 -16 -9z"/>
<path d="M1135 273 c22 -3 43 -10 47 -16 5 -8 8 -6 8 6 0 14 -8 17 -47 15 -48
-1 -48 -1 -8 -5z"/>
<path d="M629 250 c-17 -11 11 -17 46 -10 l30 6 -32 5 c-18 3 -38 2 -44 -1z"/>
<path d="M167 243 c-3 -5 10 -8 29 -9 19 0 34 2 34 6 0 9 -58 11 -63 3z"/>
<path d="M305 243 c11 -3 26 -10 33 -15 8 -8 12 -6 12 4 0 9 -12 14 -32 15
-19 1 -24 -1 -13 -4z"/>
<path d="M429 241 c14 -4 27 -13 29 -20 3 -10 -6 -12 -37 -9 -24 2 -41 -1 -41
-7 0 -6 18 -9 45 -7 45 4 56 17 33 40 -7 7 -21 12 -32 11 -18 -1 -18 -2 3 -8z"/>
<path d="M518 243 c6 -2 12 -20 12 -38 0 -18 -6 -36 -12 -38 -7 -3 5 -5 27 -5
22 0 30 3 18 5 -16 3 -23 11 -23 27 0 29 24 50 47 42 15 -6 16 -5 5 6 -10 10
-16 10 -32 0 -12 -7 -20 -8 -20 -2 0 5 -8 10 -17 9 -11 0 -13 -3 -5 -6z"/>
<path d="M768 243 c7 -3 16 -2 19 1 4 3 -2 6 -13 5 -11 0 -14 -3 -6 -6z"/>
<path d="M898 243 c6 -2 18 -2 25 0 6 3 1 5 -13 5 -14 0 -19 -2 -12 -5z"/>
<path d="M994 234 c8 -8 15 -9 23 -2 7 6 20 8 28 4 9 -3 14 -2 11 3 -3 5 -21
9 -40 8 -25 -1 -31 -4 -22 -13z"/>
<path d="M1150 240 c0 -5 -8 -10 -17 -11 -14 0 -15 -2 -3 -6 8 -3 18 -11 22
-17 4 -6 8 1 8 17 0 15 -2 27 -5 27 -3 0 -5 -4 -5 -10z"/>
<path d="M1238 243 c6 -2 12 -20 12 -38 0 -18 -6 -36 -12 -38 -7 -3 5 -5 27
-5 22 0 30 3 18 5 -16 3 -23 11 -23 27 0 29 24 50 47 42 15 -6 16 -5 5 6 -10
10 -16 10 -32 0 -12 -7 -20 -8 -20 -2 0 5 -8 10 -17 9 -11 0 -13 -3 -5 -6z"/>
<path d="M1358 243 c6 -2 12 -20 12 -38 0 -18 -6 -36 -12 -38 -7 -3 5 -5 27
-5 22 0 30 3 18 5 -16 3 -23 11 -23 27 0 29 24 50 47 42 15 -6 16 -5 5 6 -10
10 -16 10 -32 0 -12 -7 -20 -8 -20 -2 0 5 -8 10 -17 9 -11 0 -13 -3 -5 -6z"/>
<path d="M1498 243 c6 -2 18 -2 25 0 6 3 1 5 -13 5 -14 0 -19 -2 -12 -5z"/>
<path d="M1598 243 c6 -2 12 -20 12 -38 0 -18 -6 -36 -12 -38 -7 -3 5 -5 27
-5 22 0 30 3 18 5 -16 3 -23 11 -23 27 0 29 24 50 47 42 15 -6 16 -5 5 6 -10
10 -16 10 -32 0 -12 -7 -20 -8 -20 -2 0 5 -8 10 -17 9 -11 0 -13 -3 -5 -6z"/>
<path d="M178 213 c6 -2 18 -2 25 0 6 3 1 5 -13 5 -14 0 -19 -2 -12 -5z"/>
<path d="M298 213 c6 -2 18 -2 25 0 6 3 1 5 -13 5 -14 0 -19 -2 -12 -5z"/>
<path d="M150 178 c0 -9 12 -14 33 -15 18 -1 23 1 12 4 -11 3 -26 10 -32 15
-9 8 -13 6 -13 -4z"/>
<path d="M270 178 c0 -9 12 -14 33 -15 18 -1 23 1 12 4 -11 3 -26 10 -32 15
-9 8 -13 6 -13 -4z"/>
<path d="M649 178 c14 -19 46 -24 55 -9 4 5 -3 7 -14 4 -11 -3 -28 1 -38 8
-15 13 -16 12 -3 -3z"/>
<path d="M935 181 c-6 -5 -19 -11 -30 -14 -19 -4 -19 -5 1 -6 12 0 27 6 34 14
14 16 10 20 -5 6z"/>
<path d="M1535 181 c-6 -5 -19 -11 -30 -14 -19 -4 -19 -5 1 -6 12 0 27 6 34
14 14 16 10 20 -5 6z"/>
<path d="M985 170 c-4 -6 3 -10 14 -10 25 0 27 6 6 13 -8 4 -17 2 -20 -3z"/>
<path d="M418 163 c6 -2 18 -2 25 0 6 3 1 5 -13 5 -14 0 -19 -2 -12 -5z"/>
<path d="M768 163 c12 -2 32 -2 45 0 12 2 2 4 -23 4 -25 0 -35 -2 -22 -4z"/>
<path d="M1048 163 c6 -2 18 -2 25 0 6 3 1 5 -13 5 -14 0 -19 -2 -12 -5z"/>
<path d="M1123 163 c15 -2 37 -2 50 0 12 2 0 4 -28 4 -27 0 -38 -2 -22 -4z"/>
<path d="M13 55 c0 -33 2 -45 4 -27 2 18 2 45 0 60 -2 15 -4 0 -4 -33z"/>
</g>
</svg>
